<?xml version="1.0" standalone="no"?>
<!DOCTYPE svg PUBLIC "-//W3C//DTD SVG 1.1//EN" "http://www.w3.org/Graphics/SVG/1.1/DTD/svg11.dtd" >
<svg xmlns="http://www.w3.org/2000/svg" xmlns:xlink="http://www.w3.org/1999/xlink" version="1.1">
<metadata></metadata>
<defs>
<font id="herobold" horiz-adv-x="1261" >
<font-face units-per-em="2048" ascent="1536" descent="-512" />
<missing-glyph horiz-adv-x="559" />
<glyph horiz-adv-x="0" />
<glyph horiz-adv-x="682" />
<glyph unicode=" "  horiz-adv-x="559" />
<glyph unicode="&#x09;" horiz-adv-x="559" />
<glyph unicode="&#xa0;" horiz-adv-x="559" />
<glyph unicode="!" horiz-adv-x="374" d="M14 82v24q0 51 36 78t87 27q49 0 86 -28.5t37 -76.5v-24q0 -47 -38 -74.5t-85 -27.5q-51 0 -87 26.5t-36 75.5zM18 369v850q0 51 35 78.5t84 27.5q51 0 86 -27.5t35 -78.5v-850q0 -51 -36 -78t-85 -27t-84 26.5t-35 78.5z" />
<glyph unicode="&#x22;" horiz-adv-x="479" d="M0 1012v205q0 51 34 79.5t81 28.5q45 0 79.5 -28.5t34.5 -79.5v-205q0 -51 -34.5 -78t-79.5 -27q-49 0 -82 27t-33 78zM270 1012v205q0 51 33 79.5t80 28.5t81 -28.5t34 -79.5v-205q0 -51 -34 -78t-81 -27t-80 27t-33 78z" />
<glyph unicode="#" horiz-adv-x="1064" d="M-8 496q0 43 37 74.5t82 31.5h61l21 103h-37q-55 0 -86 30.5t-31 73.5q0 41 29.5 72.5t83.5 36.5h75l52 292q8 47 35.5 71t84.5 24q53 0 83 -32t30 -75q0 -14 -2 -20l-47 -260h158l51 294q8 45 39.5 69t72.5 24q47 0 80 -29t33 -76q0 -14 -2 -22l-45 -260h31 q53 0 83.5 -32t30.5 -73t-29.5 -73.5t-84.5 -34.5h-64l-20 -103h39q47 0 82.5 -28.5t35.5 -77.5q0 -47 -32.5 -77t-85.5 -30h-74l-51 -291q-8 -47 -45 -72.5t-78 -25.5q-45 0 -76 24.5t-31 71.5q0 16 2 27l47 266h-159l-54 -297q-8 -45 -38.5 -68.5t-73.5 -23.5 q-47 0 -83 28.5t-36 73.5q0 14 2 21l51 266h-28q-45 0 -82 31t-37 76zM401 596h170l25 115h-176z" />
<glyph unicode="$" horiz-adv-x="1390" d="M43 346q0 45 38 71.5t87 26.5q41 0 71.5 -18t39.5 -55l-3 4q39 -127 244 -154v346q-211 27 -338 102.5t-127 248.5q0 166 137.5 263t327.5 117v37q0 49 34 78t81 29q45 0 76.5 -28t31.5 -79v-37q350 -31 439 -270q6 -18 6 -35q0 -43 -36 -69.5t-83 -26.5 q-33 0 -60.5 15.5t-43.5 43.5q-39 104 -222 127v-333q156 -14 257.5 -42t167 -99.5t65.5 -205.5q0 -188 -143.5 -283t-346.5 -114v-90q0 -47 -33.5 -73.5t-78.5 -26.5q-47 0 -79 25.5t-32 74.5v90q-168 23 -301 97.5t-172 213.5q-4 20 -4 29zM299 915q0 -67 56.5 -99 t164.5 -46v313q-94 -16 -157.5 -56t-63.5 -112zM743 219q109 12 180.5 55t71.5 127q0 66 -66.5 97.5t-185.5 46.5v-326z" />
<glyph unicode="%" horiz-adv-x="1257" d="M-8 1016q0 80 39 150.5t109.5 114.5t158.5 44q84 0 153.5 -41t110.5 -111.5t41 -156.5q0 -80 -38 -152.5t-107.5 -119t-159.5 -46.5q-86 0 -155.5 40t-110.5 113t-41 165zM49 88q0 33 17 57l839 1166q14 14 41 14q47 0 95.5 -34t48.5 -70q0 -10 -7 -23l-837 -1173 q-37 -45 -92 -45q-43 0 -74 32.5t-31 75.5zM209 1016q0 -47 25.5 -85t64.5 -38t61.5 35t26.5 92q-4 43 -28.5 76.5t-59.5 33.5q-39 0 -64.5 -33.5t-25.5 -80.5zM539 295q0 80 38.5 150.5t108.5 114.5t158 44q84 0 154.5 -41t111.5 -111.5t41 -156.5q0 -78 -38 -150.5 t-108.5 -118.5t-160.5 -46q-86 0 -156 39.5t-109.5 111.5t-39.5 164zM754 295q0 -45 25.5 -83t64.5 -38t62.5 34t25.5 91q-2 43 -26.5 77t-61.5 34t-63.5 -34t-26.5 -81z" />
<glyph unicode="&#x26;" d="M16 395q0 88 43 160t119 111q-66 43 -100.5 115.5t-34.5 152.5q0 131 73.5 219t191.5 130t249 42q213 0 362.5 -86t149.5 -266q0 -47 -34 -74t-81 -27t-79.5 27t-32.5 74q0 78 -82 113.5t-203 35.5q-117 0 -201 -50t-84 -140q0 -96 79 -136t204 -40h555q51 0 80 -31 t29 -74q0 -41 -29 -69.5t-80 -28.5h-31v-160q0 -219 -149.5 -316t-376.5 -97q-223 2 -380 97t-157 318zM242 391q0 -111 96 -162t217 -51q119 0 210 50.5t91 162.5v162h-301q-143 0 -228 -33t-85 -129z" />
<glyph unicode="'" horiz-adv-x="309" d="M20 1014v205q0 49 34 77.5t79 28.5t80 -28.5t35 -77.5v-205q0 -47 -35 -75t-80 -28q-47 0 -80 28t-33 75z" />
<glyph unicode="(" horiz-adv-x="540" d="M2 592q0 201 77 394.5t214 324.5q37 35 92 35q47 0 80 -29t33 -68t-45 -86q-102 -88 -156.5 -243.5t-54.5 -325.5q0 -174 53 -316.5t160 -232.5q45 -35 45 -90q0 -43 -33 -76q-39 -33 -78 -33q-43 0 -86 37q-147 129 -224 314.5t-77 394.5z" />
<glyph unicode=")" horiz-adv-x="555" d="M-27 -45q0 55 45 90q106 90 159.5 232.5t53.5 316.5q0 170 -54 325.5t-157 243.5q-45 47 -45 86t33 68t80 29q55 0 92 -35q137 -131 214 -324.5t77 -394.5q0 -209 -77 -394.5t-224 -314.5q-43 -37 -86 -37q-39 0 -78 33q-33 33 -33 76z" />
<glyph unicode="*" horiz-adv-x="565" d="M-12 1145q0 37 27.5 64.5t70.5 27.5q33 0 66 -16l8 -4v8q0 47 32.5 73.5t75.5 26.5q39 0 70 -25.5t33 -68.5q27 14 53 14q41 0 72.5 -28.5t31.5 -67.5q0 -51 -55 -86l-24 -16l28 -17q27 -12 41 -34.5t14 -45.5q0 -41 -28.5 -72.5t-71.5 -31.5q-33 0 -67 20v-6 q0 -47 -32 -73.5t-75 -26.5t-71.5 28.5t-26.5 75.5q-31 -16 -64 -16q-45 0 -75.5 29.5t-30.5 70.5q0 25 16.5 48.5t48.5 39.5l21 11l-23 12q-33 16 -49 38.5t-16 47.5z" />
<glyph unicode="+" horiz-adv-x="1091" d="M33 602q0 49 32.5 76t84.5 27h239v253q0 45 32 75t85 30q49 0 84 -31t35 -74v-253h239q55 0 86 -30t31 -71t-30.5 -72.5t-86.5 -33.5h-239v-252q0 -47 -35 -77t-84 -30q-55 0 -86 29t-31 78v252h-239q-49 0 -83 30.5t-34 73.5z" />
<glyph unicode="," horiz-adv-x="284" d="M-53 -78q0 23 4 33l80 186q14 31 41.5 47.5t60.5 16.5q47 0 84 -29t37 -72q0 -27 -14 -53l-88 -180q-17 -31 -44.5 -47.5t-58.5 -16.5q-41 0 -71.5 34t-30.5 81z" />
<glyph unicode="-" horiz-adv-x="747" d="M27 608q0 43 31.5 74t86.5 31h390q57 0 88.5 -31t31.5 -74q0 -41 -31.5 -71.5t-88.5 -30.5h-390q-57 0 -87.5 30.5t-30.5 71.5z" />
<glyph unicode="." horiz-adv-x="288" d="M12 98q0 53 39 87t96 34q60 0 96 -33.5t36 -87.5q0 -53 -36 -85.5t-96 -32.5q-57 0 -96 33.5t-39 84.5z" />
<glyph unicode="/" horiz-adv-x="751" d="M-72 -88q0 23 13 47l577 1360q14 29 42 44t61 15q47 0 83.5 -29.5t36.5 -74.5q0 -10 -8 -39l-583 -1362q-31 -63 -105 -63q-47 0 -82 29.5t-35 72.5z" />
<glyph unicode="0" horiz-adv-x="1097" d="M18 475v356q0 158 70 269.5t182.5 168t241.5 56.5t242.5 -56.5t184.5 -168t71 -269.5v-356q0 -158 -70 -269.5t-184.5 -168.5t-243.5 -57t-241.5 57t-182.5 168.5t-70 269.5zM248 475q0 -141 77.5 -218t184.5 -77q113 0 190.5 74t77.5 221v356q0 146 -77.5 219.5 t-190.5 73.5q-109 0 -186.5 -73.5t-75.5 -219.5v-356z" />
<glyph unicode="1" horiz-adv-x="661" d="M61 854q0 31 17 55l272 371q21 23 49.5 34t55.5 11q51 0 85.5 -28.5t34.5 -77.5v-1141q0 -47 -33.5 -72.5t-78.5 -25.5q-47 0 -81 25.5t-34 72.5v827l-88 -117q-35 -49 -94 -49q-41 0 -73 35t-32 80z" />
<glyph unicode="2" horiz-adv-x="1163" d="M51 115q0 23 12.5 45t34.5 41l572 448q57 41 90 101.5t33 128.5q0 14 -5 39q-12 98 -79.5 150t-163.5 52q-94 0 -161 -51t-85 -139q-6 -45 -38 -69.5t-75 -24.5q-49 0 -86 33.5t-30 88.5q25 182 152.5 274.5t322.5 92.5q119 0 222 -45t171 -131t80 -203q4 -41 4 -59 q0 -231 -207 -393l-377 -293l144 6h346q57 0 90 -32t33 -73t-32 -71.5t-89 -30.5h-760q-53 4 -86 38t-33 77z" />
<glyph unicode="3" horiz-adv-x="1161" d="M37 369q2 49 38 82.5t79 33.5q41 0 73.5 -24.5t34.5 -63.5q14 -125 90 -170t187 -45t180 77t69 196q0 102 -58 169.5t-146 67.5q-43 0 -74 -18q-33 -20 -66 -21q-49 0 -82.5 35t-33.5 82q0 45 39 84l268 248h-447q-53 0 -81.5 29.5t-28.5 70.5q0 43 28.5 73t81.5 30h684 q51 0 89 -32t38 -77q0 -16 -14 -42t-35 -46q-94 -86 -274 -242q109 -10 186.5 -68.5t117.5 -148.5t40 -192q0 -139 -60.5 -248t-169 -169t-249.5 -60q-207 0 -344.5 93t-159.5 296z" />
<glyph unicode="4" horiz-adv-x="1048" d="M-10 383q0 20 6 39.5t18 42.5l394 784q12 29 38.5 42.5t59.5 13.5q45 0 77.5 -28t32.5 -73q0 -29 -14 -57l-332 -672h453v729q0 43 32.5 72t82.5 29q47 0 79.5 -30t32.5 -71v-1104q0 -47 -33.5 -73.5t-78.5 -26.5q-47 0 -81 25.5t-34 72.5v178h-592q-66 0 -103.5 29 t-37.5 78z" />
<glyph unicode="5" horiz-adv-x="1148" d="M20 356q-8 59 28 97.5t85 38.5q43 0 76 -26t41 -73q16 -121 84.5 -168t183.5 -47q82 0 141.5 42t90 107.5t30.5 133.5q0 104 -70.5 179t-199.5 75h-348q-49 0 -83 28.5t-34 71.5v373q0 55 36 86t97 31h627q57 0 88 -31t31 -74q0 -41 -31 -72.5t-88 -31.5h-531v-178h236 q162 0 276.5 -63.5t172 -168t57.5 -227.5q0 -119 -59.5 -229.5t-172 -180t-264.5 -69.5q-195 0 -330 98t-170 278z" />
<glyph unicode="6" horiz-adv-x="1150" d="M53 418v360q0 170 64.5 294t179.5 188.5t264 64.5q115 0 216.5 -36t172.5 -109q12 -12 13 -29q0 -39 -46.5 -82t-89.5 -43q-27 0 -41 16q-41 41 -100 60.5t-125 19.5q-115 0 -188.5 -77.5t-87.5 -204.5q59 45 135 67.5t149 22.5q141 0 251 -58.5t170.5 -164t60.5 -242.5 q0 -143 -71 -254t-188.5 -171t-254.5 -60q-133 0 -244 56t-175.5 156.5t-64.5 225.5zM287 418q0 -106 73.5 -170t178.5 -64q71 0 134.5 35t101.5 98.5t38 147.5q0 115 -70.5 186.5t-185.5 71.5q-129 0 -199.5 -86t-70.5 -219z" />
<glyph unicode="7" horiz-adv-x="1058" d="M6 1196q0 45 31 77t84 32h719q66 0 102.5 -28t36.5 -75q0 -35 -25 -76l-606 -1073q-12 -23 -40.5 -38t-61.5 -15q-45 0 -81 33t-36 71q0 27 12 52l535 936h-555q-53 0 -84 30.5t-31 73.5z" />
<glyph unicode="8" horiz-adv-x="1273" d="M51 373q0 98 57.5 177t153.5 122q-80 45 -126 114.5t-46 159.5q0 121 71.5 207t189.5 129t251 43t253 -44t194.5 -130t74.5 -205q0 -90 -36.5 -157.5t-112.5 -114.5q88 -41 139 -122t51 -179q0 -207 -162.5 -300t-396.5 -93q-231 0 -393 91t-162 302zM283 377 q0 -102 100 -147.5t225 -45.5t224.5 43t99.5 150q0 84 -97.5 135t-226.5 53q-131 0 -228 -51t-97 -137zM319 950q0 -84 86.5 -132t202.5 -48q115 0 200 48t85 132q0 82 -85 129t-200 47q-117 0 -203 -47t-86 -129z" />
<glyph unicode="9" horiz-adv-x="1144" d="M25 842q0 141 71.5 251.5t188 171t250.5 60.5q125 0 236.5 -54t180 -154.5t68.5 -231.5v-410q0 -150 -65.5 -261.5t-181.5 -172.5t-265 -61q-276 0 -404 153q-10 14 -10 31q0 43 50.5 86t95.5 43q27 0 41 -19q37 -45 99 -67.5t130 -22.5q133 0 207 75t78 206 q-59 -45 -133 -67.5t-146 -22.5q-145 0 -257 58.5t-173 163.5t-61 245zM254 838q0 -117 71.5 -188.5t188.5 -71.5q119 0 195.5 65.5t76.5 157.5v82q0 106 -73.5 172.5t-177.5 66.5q-74 0 -138.5 -34.5t-103.5 -100t-39 -149.5z" />
<glyph unicode=":" horiz-adv-x="323" d="M-6 119q0 53 38 87t97 34t95 -34t36 -87t-36 -86t-95 -33t-97 34t-38 85zM-4 766q0 53 37 86t96 33t96 -33t37 -86t-37 -87t-96 -34t-96 34t-37 87z" />
<glyph unicode=";" horiz-adv-x="317" d="M-59 -90q0 18 10 45l80 186q14 31 42.5 47.5t61.5 16.5q45 0 82 -29t37 -72q0 -27 -14 -53l-88 -180q-31 -59 -99 -59q-43 0 -77.5 28.5t-34.5 69.5zM-4 764q0 51 37 85t96 34t96 -33t37 -86t-37 -87t-96 -34t-96 34t-37 87z" />
<glyph unicode="&#x3c;" horiz-adv-x="634" d="M-20 637q0 47 47 90l333 317q18 20 38 28.5t51 8.5q45 0 77.5 -29.5t32.5 -70.5q0 -37 -37 -78l-280 -266l276 -256q16 -16 17 -37q0 -43 -46.5 -85t-91.5 -42q-27 0 -41 14l-331 324q-27 20 -36 37.5t-9 44.5z" />
<glyph unicode="=" horiz-adv-x="905" d="M31 496q0 39 29.5 69.5t80.5 32.5h547q55 0 85 -29.5t30 -70.5t-30 -72t-85 -33h-545q-53 0 -82.5 31t-29.5 72zM33 764q0 41 28.5 70.5t81.5 29.5h545q53 0 85 -30.5t32 -71.5t-32 -70.5t-85 -29.5h-545q-53 0 -81.5 29.5t-28.5 72.5z" />
<glyph unicode="&#x3e;" horiz-adv-x="671" d="M23 981q0 41 32.5 70.5t79.5 29.5q59 0 86 -37l334 -319q27 -20 37 -40.5t10 -47.5q0 -29 -9 -45.5t-36 -36.5l-332 -324q-14 -14 -39 -14q-47 0 -93 42t-46 83q0 23 16 39l275 256l-279 266q-36 41 -36 78z" />
<glyph unicode="?" horiz-adv-x="1234" d="M-6 999q0 20 4 31q53 162 206.5 228.5t340.5 66.5q137 0 271 -48t223 -145.5t89 -240.5q0 -111 -47 -181.5t-112.5 -110.5t-175.5 -87q-82 -33 -122 -61.5t-40 -73.5v-39q0 -47 -37 -73.5t-84 -26.5t-81 26.5t-34 73.5v41q0 86 41 144.5t100.5 93t155.5 75.5t147.5 81 t53.5 116q0 78 -55.5 130t-136 77.5t-158.5 25.5q-106 0 -200.5 -37.5t-127.5 -121.5q-10 -31 -36.5 -47.5t-63.5 -16.5q-47 0 -84 27.5t-37 72.5zM385 80v12q0 49 38 77t91 28t90 -27t37 -78v-12q0 -47 -37 -73.5t-88 -26.5t-91 26.5t-40 73.5z" />
<glyph unicode="@" horiz-adv-x="1568" d="M14 461q0 193 97.5 354.5t264.5 256.5t363 95q336 0 508 -180t172 -530v-174q0 -152 -62.5 -227.5t-172.5 -75.5q-90 0 -145.5 29.5t-98.5 101.5q-35 -43 -104.5 -74t-128.5 -31q-117 0 -212.5 58.5t-149.5 162t-54 230.5q0 123 61.5 225t165 161.5t219.5 59.5 q133 0 224.5 -55t136.5 -143.5t45 -188.5v-215q0 -88 8 -123t35 -35q16 0 28.5 42t12.5 116v156q0 281 -131 405.5t-359 124.5q-150 0 -270.5 -69.5t-190 -190.5t-69.5 -270q0 -248 133 -389.5t365 -141.5q49 0 100 12.5t86 26.5q25 8 35 8q35 0 57.5 -26.5t22.5 -63.5 q0 -57 -60 -86q-45 -20 -108.5 -33.5t-130.5 -13.5q-201 0 -359 91t-246 253t-88 367zM504 455q0 -115 56 -184.5t147 -69.5q72 0 134 31.5t89 86.5v269q-29 57 -80 89t-113 32q-98 0 -165.5 -72t-67.5 -182z" />
<glyph unicode="A" horiz-adv-x="1427" d="M-31 84q0 16 11 41l583 1143q14 33 40 45t67 12q75 0 104 -57l580 -1137q16 -27 16 -55q0 -43 -37 -69.5t-86 -26.5q-31 0 -60.5 15t-43.5 44l-144 285h-659l-143 -285q-14 -31 -42 -45t-61 -14q-47 0 -86 30.5t-39 73.5zM440 522h459l-229 457z" />
<glyph unicode="B" horiz-adv-x="1406" d="M121 109v1087q0 45 36 77t85 32h456q201 0 352.5 -77t151.5 -282q0 -70 -32.5 -138.5t-88.5 -98.5q104 -43 157.5 -123t53.5 -191q0 -217 -157.5 -306t-393.5 -89h-499q-49 0 -85 31.5t-36 77.5zM358 203h383q309 0 310 192q0 90 -70 138.5t-180 48.5h-443v-379zM358 784 h347q113 0 187.5 40t74.5 122q0 88 -82 122t-187 34h-340v-318z" />
<glyph unicode="C" horiz-adv-x="1366" d="M47 668q0 195 88 344t240.5 231t341.5 82q330 0 510 -203q35 -41 35 -82q0 -43 -33 -71.5t-78 -28.5q-53 0 -94 43q-72 78 -154 105.5t-188 27.5q-129 0 -226.5 -56t-151.5 -157.5t-54 -234.5q0 -143 55 -252t155.5 -168.5t231.5 -59.5q94 0 190.5 48.5t155.5 119.5 q51 59 111 60q43 0 74.5 -29t31.5 -72q0 -39 -31 -82q-82 -117 -232.5 -185t-303.5 -68q-201 0 -353.5 86t-236.5 241.5t-84 360.5z" />
<glyph unicode="D" horiz-adv-x="1345" d="M47 121v1065q0 49 40 84t95 35h422q184 0 324.5 -82t218.5 -229.5t78 -342.5t-78 -342t-218.5 -228t-324.5 -81h-422q-55 0 -95 36t-40 85zM281 203h323q115 0 202 55t135 157.5t48 235.5t-48 236.5t-136 160t-201 56.5h-323v-901z" />
<glyph unicode="E" horiz-adv-x="1308" d="M119 123v1061q0 51 38 86t97 35h813q53 0 81 -29t28 -70q0 -39 -30 -70.5t-79 -31.5h-715v-359h678q49 0 78 -30.5t29 -71.5t-28 -69.5t-79 -28.5h-678v-340h715q51 0 82 -33t31 -74t-30 -69.5t-83 -28.5h-813q-59 0 -97 36t-38 87z" />
<glyph unicode="F" horiz-adv-x="1263" d="M119 109v1075q0 49 40 85t93 36h795q51 0 79.5 -30t28.5 -71t-28.5 -69.5t-79.5 -28.5h-693v-408h656q51 0 78.5 -29.5t27.5 -70.5q0 -39 -27.5 -67.5t-78.5 -28.5h-656v-391q0 -51 -34.5 -81t-81.5 -30t-83 29.5t-36 79.5z" />
<glyph unicode="G" horiz-adv-x="1443" d="M39 664q0 197 83 346t233.5 232t346.5 83q139 0 270.5 -50t219.5 -145q39 -41 39 -86q0 -43 -33 -72.5t-78 -29.5q-55 0 -102 49q-63 66 -145 98.5t-171 32.5q-127 0 -224 -58t-150.5 -163.5t-53.5 -243.5q2 -137 55.5 -243.5t148.5 -167t220 -60.5q90 0 179.5 40 t148.5 110v209h-299q-55 0 -84 28.5t-29 69.5q0 43 30 74t83 31h408q68 0 95 -29t27 -82v-322q1 -53 -30 -86q-94 -111 -240.5 -180t-290.5 -69q-199 0 -349 86t-231 240q-77 148 -77 339v19z" />
<glyph unicode="H" horiz-adv-x="1398" d="M115 111v1087q0 49 33.5 78t80.5 29q49 0 85 -29t36 -78v-467h613v467q0 49 34.5 78t81.5 29t84 -29t37 -78v-1087q0 -51 -37 -81t-84 -30t-81.5 28.5t-34.5 82.5v421h-613v-421q0 -53 -34.5 -82t-79.5 -29q-49 0 -85 29.5t-36 81.5z" />
<glyph unicode="I" horiz-adv-x="450" d="M92 104v1090q0 53 35 82t84 29t85 -29t36 -82v-1090q0 -49 -36 -76.5t-85 -27.5t-84 26.5t-35 77.5z" />
<glyph unicode="J" horiz-adv-x="1185" d="M-49 420q0 47 37 81t82 34q49 0 82.5 -28t37.5 -81q6 -109 79 -175.5t188 -66.5q141 0 228 78t87 205v633h-321q-57 0 -90 30.5t-33 71.5t32.5 72t90.5 31h432q45 0 79.5 -29t38.5 -70v-739q0 -145 -67.5 -256t-191.5 -171t-285 -60q-137 0 -253 58t-184.5 158.5 t-68.5 223.5z" />
<glyph unicode="K" horiz-adv-x="1284" d="M117 106v1094q0 51 33.5 78t82.5 27t85 -27t36 -78v-489l633 561q39 33 86 33q49 0 84 -33t35 -74q0 -43 -41 -80l-475 -411l493 -525q39 -47 39 -84q0 -43 -33.5 -70.5t-80.5 -27.5q-59 0 -97 39l-489 524l-154 -135v-322q0 -49 -35.5 -77.5t-85.5 -28.5 q-47 0 -81.5 28.5t-34.5 77.5z" />
<glyph unicode="L" horiz-adv-x="1179" d="M117 111v1089q0 49 35.5 77t85.5 28q47 0 82.5 -28t35.5 -77v-995h672q57 0 90 -31t33 -72q0 -43 -33 -72.5t-90 -29.5h-788q-64 0 -93.5 27.5t-29.5 83.5z" />
<glyph unicode="M" horiz-adv-x="1642" d="M125 106v1082q0 51 35 84t82 33q28 0 57 -16.5t47 -45.5l428 -670l426 672q18 29 48 44.5t61 15.5q47 0 80.5 -31t33.5 -84v-1084q0 -51 -36.5 -78.5t-83.5 -27.5q-49 0 -83 27.5t-34 78.5v691l-305 -478q-16 -29 -45 -44t-62 -15t-63.5 17.5t-46.5 48.5l-302 469v-689 q0 -51 -35.5 -78.5t-82.5 -27.5q-49 0 -84 27.5t-35 78.5z" />
<glyph unicode="N" horiz-adv-x="1415" d="M109 109v1071q0 59 36.5 92t87.5 33q37 0 66 -15.5t53 -46.5l643 -835l-8 137v659q0 47 38 74t87 27t84 -26t35 -75v-1081q0 -57 -41 -90t-96 -33q-35 0 -69 16.5t-54 42.5l-627 807l8 -114v-643q0 -53 -35.5 -81t-85.5 -28q-51 0 -86.5 27.5t-35.5 81.5z" />
<glyph unicode="O" horiz-adv-x="1525" d="M45 651q0 199 84 352.5t236.5 237.5t351.5 84q197 0 348.5 -84t234 -236.5t82.5 -353.5q0 -198 -82.5 -351t-233.5 -236.5t-349 -83.5q-199 0 -351.5 83.5t-236.5 236.5t-84 351zM287 651q0 -137 53 -241.5t151.5 -163t225.5 -58.5t223 58.5t149.5 163t53.5 241.5 t-53.5 242.5t-149.5 164t-223 58.5t-225.5 -58.5t-151.5 -164t-53 -242.5z" />
<glyph unicode="P" horiz-adv-x="1310" d="M119 102v1096q0 47 34.5 77t84.5 30h417q168 0 289 -59.5t185.5 -169t64.5 -253.5q0 -139 -64.5 -242.5t-187.5 -161t-293 -57.5h-295v-258q0 -51 -35.5 -77.5t-82.5 -26.5t-82 27.5t-35 74.5zM354 565h295q147 0 229.5 70t82.5 188q0 127 -80 203t-224 76h-303v-537z " />
<glyph unicode="Q" horiz-adv-x="1542" d="M45 651q0 199 84 352.5t236.5 237.5t351.5 84q197 0 348.5 -84t234 -236.5t82.5 -353.5q0 -244 -120 -411l47 -50q34 -34 34 -77q0 -45 -33.5 -79t-76.5 -34q-49 0 -84 37l-47 49q-160 -106 -385 -106q-199 0 -351.5 83.5t-236.5 236.5t-84 351zM287 651 q0 -137 53 -241.5t151.5 -163t225.5 -58.5q129 1 229 62l-84 88q-35 41 -35 78q0 43 32 72.5t79 29.5q53 0 94 -39l62 -63q49 109 49 235q0 137 -53.5 242.5t-149.5 164t-223 58.5t-225.5 -58.5t-151.5 -164t-53 -242.5z" />
<glyph unicode="R" horiz-adv-x="1345" d="M119 104v1094q0 47 32.5 77t86.5 30h456q178 0 302 -58.5t187.5 -159t63.5 -225.5q0 -147 -78.5 -253.5t-232.5 -149.5l246 -258q43 -46 43 -97q0 -43 -32 -74.5t-75 -31.5q-47 0 -86 41l-366 391h-310v-324q0 -49 -35.5 -77.5t-82.5 -28.5q-49 0 -84 27.5t-35 76.5z M356 629h340q154 0 233 63.5t79 159.5q0 106 -84 176t-228 70h-340v-469z" />
<glyph unicode="S" horiz-adv-x="1323" d="M10 336q0 45 39 73.5t90 28.5q43 0 74 -20.5t39 -59.5q31 -90 137.5 -126.5t233.5 -36.5q141 0 254.5 45t113.5 153q0 59 -50 92t-124 45.5t-194 22.5q-180 14 -303 43t-208 106.5t-85 223.5q0 133 87 223t219 133t269 43q190 0 353 -66.5t229 -220.5q4 -20 4 -28 q0 -45 -37 -75t-84 -30q-35 0 -63.5 15.5t-40.5 42.5q-55 143 -359 143q-115 0 -223.5 -44t-108.5 -138q0 -63 48.5 -96t123 -46.5t201.5 -21.5q209 -20 318.5 -42t191.5 -96.5t82 -226.5t-94 -245t-234.5 -131.5t-285.5 -38.5q-121 0 -248 31.5t-227.5 105t-133.5 192.5 q-4 21 -4 27z" />
<glyph unicode="T" horiz-adv-x="1206" d="M-51 1198q0 43 29.5 75t84.5 32h998q55 0 88 -32t33 -75q0 -41 -33 -72.5t-88 -31.5h-381l2 -985q0 -51 -38 -80t-83 -29q-47 0 -83 28.5t-36 80.5v985h-379q-55 0 -84.5 30.5t-29.5 73.5z" />
<glyph unicode="U" horiz-adv-x="1554" d="M117 575v627q0 49 34.5 76t84.5 27q51 0 86.5 -27t35.5 -78v-625q0 -170 102.5 -275t270.5 -105q170 0 274.5 105.5t104.5 274.5v621q0 51 36 80t85 29t84 -28t35 -79v-623q0 -176 -77 -311t-216 -209.5t-324 -74.5q-184 0 -323.5 74.5t-216 209.5t-76.5 311z" />
<glyph unicode="V" horiz-adv-x="1400" d="M-18 1196q0 45 37.5 77t86.5 32q39 0 65 -14.5t42 -49.5l451 -864l442 860q16 33 44 50.5t60 17.5q47 0 85 -30t38 -77q0 -27 -14 -55l-549 -1080q-16 -29 -45 -46t-61 -17q-35 0 -65 16.5t-46 51.5l-561 1085q-10 25 -10 43z" />
<glyph unicode="W" horiz-adv-x="2396" d="M25 1188q0 49 35.5 83t80.5 34q84 0 125 -93l379 -829l373 739q14 33 41.5 50.5t64.5 17.5q35 0 67 -16.5t48 -47.5l373 -743l383 840q16 37 48 59.5t71 22.5q47 0 84.5 -32t37.5 -79q0 -25 -12 -53l-498 -1073q-14 -33 -44.5 -50.5t-67.5 -17.5q-76 0 -107 63l-381 752 l-376 -752q-14 -29 -47 -46t-70 -17q-80 0 -107 68l-489 1065q-12 31 -12 55z" />
<glyph unicode="X" horiz-adv-x="1314" d="M2 102q0 43 33 78l438 482l-426 475q-23 25 -22 57q0 43 35.5 77t78.5 34q55 0 88 -35l394 -436l395 432q33 39 88 39q43 0 78 -33t35 -74q0 -37 -27 -65l-424 -467l438 -488q33 -41 33 -78q0 -41 -33 -70.5t-80 -29.5q-66 0 -102 43l-406 451l-407 -451q-37 -43 -94 -43 q-45 0 -79 30.5t-34 71.5z" />
<glyph unicode="Y" horiz-adv-x="1263" d="M25.5 1274q33.5 31 80.5 31q68 0 109 -58l377 -514l377 508q47 63 110 64q43 0 76 -32t33 -77q0 -37 -27 -72l-448 -600v-401q0 -53 -38 -88t-81 -35q-51 0 -85 34t-34 89v401l-459 606q-24 34 -24 65q0 48 33.5 79z" />
<glyph unicode="Z" horiz-adv-x="1257" d="M2 98q0 39 33 78l809 924h-688q-53 0 -83 29.5t-30 70.5t29.5 73t81.5 32h919q59 0 93 -29t34 -70q0 -35 -35 -82l-815 -913h729q57 0 88 -30.5t31 -74.5q0 -41 -30.5 -72.5t-88.5 -33.5h-950q-59 0 -93 28.5t-34 69.5z" />
<glyph unicode="[" horiz-adv-x="524" d="M74 -82v1407q0 49 39 83t92 34h198q59 0 93 -32t34 -73q0 -43 -32.5 -73.5t-94.5 -30.5h-96v-1223h96q59 0 92 -30.5t33 -71.5q0 -43 -32.5 -74t-92.5 -31h-198q-53 0 -92 34t-39 81z" />
<glyph unicode="\" horiz-adv-x="696" d="M-74 1313q0 45 36 75.5t81 30.5q35 0 64.5 -17.5t44.5 -49.5l575 -1379q8 -18 8 -45q0 -45 -33.5 -76.5t-78.5 -31.5q-76 0 -111 65l-578 1385q-8 18 -8 43z" />
<glyph unicode="]" horiz-adv-x="524" d="M-25 -96q0 43 31 74.5t86 31.5h92v1229h-92q-51 0 -79.5 29.5t-28.5 70.5t28.5 72t79.5 31h201q51 0 90 -35t39 -82v-1407q0 -49 -39 -83t-90 -34h-201q-55 0 -86 30t-31 73z" />
<glyph unicode="^" horiz-adv-x="743" d="M18 1034q0 35 27 64q49 66 98 123q43 51 95 118q18 25 47.5 38.5t58.5 13.5q61 0 105 -48l194 -247q27 -33 27 -66q0 -37 -34 -64.5t-77 -27.5q-59 0 -92 39l-125 160l-123 -160q-37 -43 -92 -43q-45 0 -77 29.5t-32 70.5z" />
<glyph unicode="_" horiz-adv-x="888" d="M-53 -37q0 43 30.5 74t83.5 31h666q51 0 81 -31t30 -74q0 -41 -29 -71.5t-82 -30.5h-666q-53 0 -83.5 30.5t-30.5 71.5z" />
<glyph unicode="`" horiz-adv-x="614" d="M98 1315q0 39 31 72.5t70 33.5q23 0 41 -12l213 -135q47 -29 47 -74q0 -35 -28 -60.5t-64 -25.5q-25 0 -46 12l-215 113q-49 27 -49 76z" />
<glyph unicode="a" d="M41 524q0 158 63.5 280t177 190.5t263.5 68.5q70 0 148.5 -26.5t144.5 -75.5q8 39 37.5 60t76.5 21q52 0 84.5 -29.5t32.5 -76.5v-830q0 -47 -32.5 -76.5t-84.5 -29.5q-49 0 -78.5 23.5t-35.5 62.5q-68 -53 -153 -79.5t-167 -26.5q-147 0 -254.5 67.5t-165 190 t-57.5 286.5zM274 522q0 -152 74 -244t195 -92q96 0 177 41t116 117v354q-37 74 -114 116t-161 42q-129 0 -208 -93t-79 -241z" />
<glyph unicode="b" horiz-adv-x="1265" d="M102 104v1119q0 51 34 76.5t83 25.5q47 0 82 -25.5t35 -76.5l-2 -285q66 61 143.5 93t153.5 32q153 0 265 -66.5t170 -186.5t58 -278t-54 -283.5t-157.5 -197t-240.5 -71.5q-96 0 -183.5 31.5t-156.5 94.5q0 -106 -111 -106q-55 0 -87 27.5t-32 76.5zM332 373 q27 -88 107.5 -136.5t183.5 -48.5q120 0 194 94.5t74 247.5q0 145 -79 234.5t-208 89.5q-86 0 -160.5 -46t-109.5 -128z" />
<glyph unicode="c" horiz-adv-x="1101" d="M39 516q0 164 66.5 288t187.5 191.5t280 67.5q119 0 214.5 -38t175.5 -128q32 -38 32 -74q0 -45 -30.5 -73.5t-71.5 -28.5q-49 0 -84 41q-45 51 -106.5 75.5t-129.5 24.5q-135 0 -217 -94t-82 -250q0 -152 84 -244t224 -92q66 0 128 22.5t109 69.5t96 48q41 0 69 -28 t28 -69q0 -45 -35 -82q-76 -84 -178.5 -123.5t-218.5 -39.5q-162 0 -284 66.5t-189.5 188t-67.5 281.5z" />
<glyph unicode="d" horiz-adv-x="1263" d="M45 532q0 154 63.5 275t178 188.5t262.5 67.5q70 0 147.5 -27.5t143.5 -79.5v267q0 51 33.5 76.5t80.5 25.5t83 -26.5t36 -75.5v-1119q0 -49 -30.5 -76.5t-88.5 -27.5q-106 0 -110 98q-63 -57 -145.5 -86.5t-157.5 -29.5q-152 0 -263.5 69.5t-172 194.5t-60.5 286z M279 530q0 -152 73.5 -247t194.5 -95q104 0 186 47.5t111 133.5l-2 315q-35 80 -112 126t-165 46q-127 0 -206.5 -92t-79.5 -234z" />
<glyph unicode="e" horiz-adv-x="1267" d="M51 498q0 168 65.5 296t186.5 198.5t283 70.5q242 0 377 -145.5t137 -387.5q0 -61 -24.5 -91.5t-104.5 -30.5h-682q29 -100 108.5 -163t188.5 -63q131 0 223 72q45 39 92 39q43 0 73 -31t30 -72q0 -47 -41 -88q-67 -66 -165 -96q-88 -27 -186 -26h-20q-160 0 -283 65.5 t-190.5 183t-67.5 269.5zM287 590h596q-12 127 -84 198.5t-211 71.5q-119 0 -199 -73.5t-102 -196.5z" />
<glyph unicode="f" horiz-adv-x="716" d="M-18 924q0 39 27.5 67.5t76.5 28.5h53v35q0 92 45 159.5t120 103.5t159 36q137 0 221 -74q37 -31 37 -76q0 -43 -32 -75.5t-75 -32.5q-37 0 -71 30q-29 29 -72 29q-41 0 -69.5 -26.5t-28.5 -73.5v-35h135q47 0 72.5 -28.5t25.5 -67.5q0 -41 -25.5 -69t-72.5 -28h-135 v-725q0 -47 -35 -74.5t-82 -27.5t-82 27.5t-35 74.5v725h-53q-49 0 -76.5 29t-27.5 68z" />
<glyph unicode="g" horiz-adv-x="1265" d="M45 524q0 158 63.5 280t177 190.5t263.5 68.5q76 0 153.5 -22.5t143.5 -69.5q23 71 108 71h2q54 0 86.5 -33.5t32.5 -82.5v-863q0 -145 -67.5 -248.5t-185 -155.5t-263.5 -52q-125 0 -220 31.5t-175 107.5q-39 39 -39 84q0 43 34 76t79 33q41 0 79 -33 q59 -53 112.5 -70.5t129.5 -17.5q121 0 204 62.5t83 182.5v19q-66 -49 -149 -75.5t-156 -26.5q-147 0 -260 67.5t-174.5 190t-61.5 286.5zM279 522q0 -152 73.5 -244t194.5 -92q98 0 182 43t115 121v342q-37 76 -116 120t-163 44q-129 0 -207.5 -93t-78.5 -241z" />
<glyph unicode="h" horiz-adv-x="1320" d="M102 106v1121q0 45 36 71.5t83 26.5t82 -26.5t35 -71.5v-279q135 115 340 115q211 0 330.5 -135t119.5 -359v-463q0 -49 -30.5 -77.5t-85.5 -28.5q-51 0 -84 29.5t-33 76.5v467q0 133 -62.5 209t-187.5 76q-59 0 -132 -35t-124 -107.5t-51 -183.5v-426q0 -49 -29.5 -77.5 t-85.5 -28.5q-55 0 -88 29.5t-33 76.5z" />
<glyph unicode="i" horiz-adv-x="413" d="M70 1196v27q0 49 34.5 75.5t83.5 26.5q47 0 83 -26.5t36 -75.5v-27q0 -49 -35.5 -75.5t-83.5 -26.5q-49 0 -83.5 26.5t-34.5 75.5zM72 100v842q0 47 35.5 73.5t80.5 26.5q47 0 82 -26.5t35 -71.5v-844q0 -47 -34.5 -73.5t-82.5 -26.5q-45 0 -80.5 26.5t-35.5 73.5z" />
<glyph unicode="j" horiz-adv-x="428" d="M-72 -238q0 27 16.5 52.5t51.5 44.5q55 31 72.5 70.5t17.5 109.5v901q0 45 32 73.5t87 28.5q45 0 79.5 -29.5t34.5 -72.5v-834v-33q0 -86 -9 -144q-11 -68 -59 -135.5t-155 -123.5l-6 -2q-30 -10 -53 -10q-47 0 -78 31.5t-31 72.5zM84 1196v27q0 49 35 75.5t84 26.5 q47 0 83 -26.5t36 -75.5v-27q0 -49 -36 -75.5t-83 -26.5q-49 0 -84 26.5t-35 75.5z" />
<glyph unicode="k" horiz-adv-x="1009" d="M100 104v1117q0 49 35 76.5t82 27.5t82 -27.5t35 -76.5v-566l379 355q18 14 41.5 23t44.5 9q49 0 84 -31.5t35 -72.5q0 -39 -44 -80l-321 -285l365 -397q28 -35 28 -72q0 -43 -33.5 -73.5t-78.5 -30.5q-55 0 -95 45l-346 385l-59 -53v-273q0 -47 -36 -75.5t-83 -28.5 t-81 27.5t-34 76.5z" />
<glyph unicode="l" horiz-adv-x="413" d="M72 102v1121q0 43 32.5 72.5t83.5 29.5q49 0 83 -30.5t34 -71.5v-1121q0 -41 -33.5 -71.5t-83.5 -30.5q-51 0 -83.5 29.5t-32.5 72.5z" />
<glyph unicode="m" horiz-adv-x="2187" d="M137 102v836q0 43 34 73.5t81 30.5q51 0 84 -30.5t33 -73.5v-6q135 131 338 131q127 0 221 -51t151 -144q86 106 198 150.5t222 44.5q211 0 331 -136t120 -360v-461q0 -49 -31 -77.5t-86 -28.5q-51 0 -84 29.5t-33 76.5v465q0 133 -62.5 210t-187.5 77q-70 0 -142.5 -43 t-120.5 -123t-48 -184v-402q0 -49 -29.5 -77.5t-85.5 -28.5q-53 0 -85.5 29.5t-32.5 76.5v465q0 133 -62.5 210t-187.5 77q-57 0 -129 -40t-123 -120t-51 -190v-406q0 -49 -35 -75.5t-82 -26.5t-81 26.5t-34 75.5z" />
<glyph unicode="n" horiz-adv-x="1320" d="M102 104v834q0 49 35 76.5t82 27.5q45 0 81 -27.5t36 -72.5v-14q145 135 354 135q211 0 331 -135t120 -359v-463q0 -49 -31 -77.5t-86 -28.5q-51 0 -84 29.5t-33 76.5v467q0 133 -62.5 209t-189.5 76q-59 0 -135 -40t-130 -120t-54 -190v-404q0 -49 -28.5 -76.5 t-84.5 -27.5q-55 0 -88 27.5t-33 76.5z" />
<glyph unicode="o" horiz-adv-x="1214" d="M41 516q0 162 68.5 286t191.5 192.5t285 68.5t285.5 -68.5t191 -192.5t67.5 -286q-2 -160 -70.5 -281.5t-191.5 -188t-282 -66.5q-160 0 -283 66.5t-191.5 188t-70.5 281.5zM281 516q0 -147 84 -239.5t221 -92.5t221 92.5t84 239.5q0 152 -84 247t-221 95t-221 -95 t-84 -247z" />
<glyph unicode="p" horiz-adv-x="1269" d="M102 -240v1178q0 49 32 76.5t87 27.5q92 0 109 -71q66 47 143.5 69.5t153.5 22.5q149 0 264 -66.5t177 -187.5t62 -277q0 -164 -61 -288.5t-174 -194t-260 -69.5q-72 0 -154 24.5t-147 69.5v-314q0 -47 -34 -75.5t-81 -28.5t-82 27.5t-35 76.5zM334 354 q31 -78 114.5 -123t180.5 -45q121 0 194.5 95.5t73.5 248.5q0 145 -79 235.5t-208 90.5q-84 0 -161.5 -44t-114.5 -118v-340z" />
<glyph unicode="q" horiz-adv-x="1271" d="M49 532q0 156 63.5 277t177 187.5t263.5 66.5q76 0 153.5 -22.5t143.5 -69.5q16 71 105 71h3q58 0 88.5 -27.5t30.5 -76.5v-1178q0 -47 -34.5 -75.5t-81.5 -28.5t-81 27.5t-34 76.5v314q-66 -45 -148 -69.5t-153 -24.5q-147 0 -260 69.5t-174.5 194.5t-61.5 288zM283 530 q0 -154 73.5 -249t194.5 -95q96 0 180 45t115 123v340q-37 74 -115 118t-162 44q-129 0 -207.5 -90t-78.5 -236z" />
<glyph unicode="r" horiz-adv-x="690" d="M88 104v834q0 47 36 75.5t83 28.5q45 0 78.5 -27.5t33.5 -76.5v-12q85 116 231 116h3q57 0 89 -24.5t32 -75.5q0 -49 -33 -77.5t-88 -28.5q-125 0 -179.5 -88.5t-54.5 -253.5v-390q0 -45 -32.5 -74.5t-79.5 -29.5q-53 0 -86 28.5t-33 75.5z" />
<glyph unicode="s" horiz-adv-x="1095" d="M23 270q0 43 37.5 72t82.5 29q37 0 66 -21.5t43 -64.5q16 -51 91 -78t167 -27q111 0 178.5 40t67.5 102q0 57 -61.5 75.5t-192.5 28.5q-154 14 -247 35.5t-157.5 85t-64.5 188.5q0 98 57 172t161.5 115t242.5 41q373 0 458 -223q6 -18 6 -33q0 -47 -37.5 -76t-82.5 -29 q-37 0 -61.5 14.5t-39.5 49.5q-43 94 -243 94q-102 0 -165 -34.5t-63 -92.5q0 -53 37 -68.5t129 -23.5q39 0 82 -6q166 -18 255 -40t154.5 -85.5t65.5 -187.5q0 -100 -60.5 -178t-169 -121t-249.5 -43q-170 0 -307 56t-176 208q-4 16 -4 26z" />
<glyph unicode="t" horiz-adv-x="788" d="M-23 944q0 39 30 68.5t83 29.5h78v177q0 49 34 77.5t81 28.5t81.5 -28.5t34.5 -77.5v-177h160q51 0 81 -29.5t30 -68.5t-30 -67.5t-81 -28.5h-160v-483q0 -84 19.5 -134.5t79.5 -50.5q33 0 65 15q37 18 68 18q43 0 72.5 -29.5t29.5 -70.5q0 -29 -17.5 -54.5t-49.5 -44.5 q-43 -23 -77 -28.5t-91 -5.5q-330 0 -330 385v483h-78q-53 0 -83 28.5t-30 67.5z" />
<glyph unicode="u" horiz-adv-x="1314" d="M98 477v451q0 49 32 81.5t85 32.5q51 0 84 -32.5t33 -81.5v-455q0 -137 62.5 -213t189.5 -76q57 0 129.5 41t125 121t52.5 191v391q0 51 29.5 82.5t85.5 31.5q53 0 85.5 -32.5t32.5 -81.5v-824q0 -47 -35.5 -75.5t-80.5 -28.5q-47 0 -82 28.5t-35 77.5v9 q-139 -135 -342 -135q-213 0 -332 133t-119 364z" />
<glyph unicode="v" horiz-adv-x="1136" d="M-6 928q0 47 37 80.5t82 33.5q37 0 63.5 -19t42.5 -52l313 -635l314 637q18 35 47 52t63 17q43 0 77 -26.5t34 -69.5q0 -27 -14 -55l-418 -848q-14 -27 -43 -45t-64 -18q-68 0 -102 59l-424 850q-8 19 -8 39z" />
<glyph unicode="w" horiz-adv-x="1861" d="M37 932q0 47 39 78.5t84 31.5q33 0 64.5 -21.5t41.5 -47.5l266 -608l256 526q14 33 42 51.5t65 18.5t64.5 -17.5t44.5 -50.5l258 -533l264 609q33 73 108 73h2q45 0 79 -30.5t34 -75.5q0 -18 -10 -45l-363 -852q-23 -59 -104 -59q-82 0 -111 57l-262 555l-268 -553 q-14 -29 -43 -44t-68 -15q-78 0 -104 61l-369 848q-10 25 -10 43z" />
<glyph unicode="x" horiz-adv-x="1064" d="M-6 98q0 45 39 86l315 340l-307 332q-39 41 -39 86q0 43 32 71.5t77 28.5q57 0 108 -53l277 -297l280 301q47 49 103 49q43 0 74.5 -27.5t31.5 -68.5q0 -45 -41 -88l-307 -330l309 -333q37 -40 37 -89q0 -45 -31.5 -75.5t-74.5 -30.5q-47 0 -93 45l-292 317l-291 -313 q-47 -49 -103 -49q-43 0 -73.5 28.5t-30.5 69.5z" />
<glyph unicode="y" horiz-adv-x="1144" d="M-10 926q0 47 35.5 81.5t80.5 34.5q33 0 63 -20.5t46 -52.5l315 -617l316 619q14 33 43 52t65 19q45 0 79 -33.5t34 -80.5q0 -16 -6 -39l-598 -1174q-20 -39 -52 -61.5t-67 -22.5q-43 0 -75.5 33t-32.5 78q0 23 12 51l155 307l-403 781q-10 27 -10 45z" />
<glyph unicode="z" horiz-adv-x="1083" d="M8 100q0 18 10.5 41t28.5 41l584 654l-477 -2q-53 0 -84 30.5t-31 71.5q0 43 30.5 74.5t84.5 31.5h704q53 0 88 -32.5t35 -75.5q0 -37 -37 -78l-590 -653l518 2q55 0 87 -32t32 -73t-30.5 -70.5t-88.5 -29.5h-741q-57 0 -90 29.5t-33 70.5z" />
<glyph unicode="{" horiz-adv-x="534" d="M-6 602q0 37 25.5 68.5t72.5 34.5q20 4 25 8q10 12 13 45t3 84v288q0 102 20.5 170t83 108t181.5 40q53 0 83.5 -32t30.5 -73q0 -43 -29.5 -72.5t-84.5 -29.5q-31 0 -40 -23.5t-9 -89.5v-301q0 -84 -10.5 -135t-55.5 -90q45 -41 55.5 -93t10.5 -134v-293q0 -63 9 -87 t40 -24q55 0 84.5 -30.5t29.5 -71.5t-30.5 -73t-83.5 -32q-119 0 -181.5 40t-83 108t-20.5 170v276q0 53 -3 86t-13 43l-25 9q-45 4 -71.5 35.5t-26.5 70.5z" />
<glyph unicode="|" horiz-adv-x="315" d="M25 -80v1387q0 47 35.5 76.5t82.5 29.5q55 0 87 -28.5t32 -77.5v-1387q0 -51 -30.5 -76.5t-88.5 -25.5q-49 0 -83.5 26.5t-34.5 75.5z" />
<glyph unicode="}" horiz-adv-x="552" d="M-20 -131q0 43 28.5 72.5t83.5 29.5q31 0 41 23.5t10 87.5v293q0 82 10.5 134t55.5 93q-45 39 -55.5 90t-10.5 135v301q0 66 -10 89.5t-41 23.5q-55 0 -83.5 29.5t-28.5 72.5q0 41 29.5 73t82.5 32q119 0 181.5 -40t83 -107.5t20.5 -170.5v-288q0 -51 3 -84t15 -45l23 -8 q45 -2 71.5 -34t26.5 -69q0 -41 -25.5 -72.5t-72.5 -33.5q-18 -4 -23 -9q-12 -10 -15 -42.5t-3 -86.5v-276q0 -102 -20.5 -170t-83 -108t-181.5 -40q-53 0 -82.5 32t-29.5 73z" />
<glyph unicode="~" horiz-adv-x="1056" d="M-10 498q0 12 2 18q22 129 90 183.5t176 54.5q74 0 137.5 -21.5t147.5 -62.5q92 -43 141 -58q10 -2 25 -2q25 0 38 13.5t19 44.5q8 43 39 65.5t76 22.5t79.5 -28t34.5 -75q0 -14 -2 -20q-16 -115 -86.5 -174.5t-179.5 -59.5q-63 0 -121.5 20.5t-138.5 59.5 q-139 70 -207 70q-39 0 -47 -66q-6 -41 -38 -62.5t-71 -21.5q-47 0 -80.5 27t-33.5 72z" />
<glyph unicode="&#xa1;" horiz-adv-x="307" d="M14 936v25q0 49 36 75.5t87 26.5q47 0 85 -27.5t38 -74.5v-25q0 -47 -37 -76t-86 -29q-51 0 -87 27t-36 78zM18 -176v850q0 51 35 77.5t84 26.5t85 -26.5t36 -77.5v-850q0 -51 -35 -79t-86 -28q-49 0 -84 28t-35 79z" />
<glyph unicode="&#xa2;" horiz-adv-x="1044" d="M2 516q0 213 109.5 355.5t298.5 179.5v73q0 47 34.5 73t79.5 26q47 0 81 -26t34 -73v-67q170 -27 287 -160q33 -39 32 -76q0 -43 -30.5 -71.5t-71.5 -28.5q-49 0 -84 41q-49 57 -133 86v-653q84 20 143 79q48 48 97 48q41 0 68.5 -28t27.5 -69q0 -45 -35 -82 q-119 -127 -301 -157v-66q0 -49 -33 -75.5t-80 -26.5t-81.5 27.5t-34.5 74.5v72q-188 39 -298 179t-110 345zM238 518q0 -108 46 -189t126 -118v625q-82 -37 -127 -120t-45 -198z" />
<glyph unicode="&#xa5;" horiz-adv-x="1257" d="M-27 1225q0 43 36 71.5t85 28.5q37 0 60.5 -10t40.5 -37l397 -545l403 545q16 29 39 38t60 9q45 0 79.5 -28.5t34.5 -71.5q0 -31 -20 -64l-373 -499h76q55 0 86 -30t31 -69q0 -41 -31 -69.5t-86 -28.5h-178v-47h180q53 0 83 -29t30 -70q0 -39 -29 -67.5t-84 -28.5h-180 v-112q0 -53 -37 -82t-82 -29q-51 0 -85 27.5t-34 83.5v112h-190q-51 4 -80 34t-29 65q0 39 32 67.5t85 28.5h182v47h-192q-51 4 -80 33.5t-29 66.5q0 39 32 68t85 29h82l-377 499q-23 31 -23 64z" />
<glyph unicode="&#xa8;" horiz-adv-x="851" d="M102 1260q0 51 40 85.5t94 34.5q49 0 91 -34.5t42 -85.5q0 -59 -41 -91t-92 -32q-53 0 -93.5 35.5t-40.5 87.5zM479 1260q0 51 41 85.5t94 34.5q52 0 94 -34.5t42 -85.5q0 -59 -40 -91t-96 -32q-53 0 -94 34.5t-41 88.5z" />
<glyph unicode="&#xa9;" horiz-adv-x="1021" d="M-14 643q0 133 67.5 243.5t182 174t251.5 63.5q136 0 249.5 -63.5t180 -174t66.5 -243.5q0 -131 -66.5 -241.5t-180 -175t-249.5 -64.5q-137 0 -251.5 64.5t-182 175t-67.5 241.5zM182 643q0 -90 42 -158.5t112 -105.5t151 -37q80 0 150 36t112 103.5t42 161.5 q0 82 -42 150.5t-113 107.5t-149 39q-81 0 -151 -39t-112 -106.5t-42 -151.5zM233 643q0 106 67 178t187 72q51 0 97.5 -20.5t75 -51t28.5 -57.5q2 -51 -27.5 -78t-72.5 -27q-18 0 -29.5 6.5t-28.5 20.5q-23 23 -43 23q-28 0 -38.5 -16.5t-10.5 -55.5q0 -29 13.5 -46.5 t35.5 -17.5q14 0 26.5 7.5t29.5 21.5q20 16 32.5 23.5t30.5 7.5q53 0 81 -24.5t28 -63.5q0 -29 -17 -58q-27 -47 -89 -74.5t-122 -27.5q-115 0 -184.5 76t-69.5 182z" />
<glyph unicode="&#xab;" horiz-adv-x="866" d="M-37 539q0 23 12.5 43t38.5 45l316 307q18 18 33.5 24.5t48.5 6.5q47 0 81.5 -31t34.5 -74q0 -20 -8 -37.5t-28 -38.5l-256 -245l256 -246q37 -37 36 -74q0 -45 -31.5 -74.5t-84.5 -29.5q-49 0 -93 39l-311 301q-25 23 -35 41t-10 43zM322 539q0 23 12 42t39 46l315 307 q18 18 33.5 24.5t48.5 6.5q47 0 82 -31t35 -74q0 -20 -8.5 -37.5t-28.5 -38.5l-256 -245l256 -246q37 -37 37 -74q0 -45 -32 -74.5t-85 -29.5q-49 0 -92 39l-311 301q-25 23 -35 41t-10 43z" />
<glyph unicode="&#xad;" horiz-adv-x="747" d="M27 608q0 43 31.5 74t86.5 31h390q57 0 88.5 -31t31.5 -74q0 -41 -31.5 -71.5t-88.5 -30.5h-390q-57 0 -87.5 30.5t-30.5 71.5z" />
<glyph unicode="&#xae;" horiz-adv-x="980" d="M-27 635q0 127 65.5 236.5t178.5 173t244 63.5q135 0 246.5 -63.5t177 -172t65.5 -237.5t-65.5 -238.5t-177 -174t-246.5 -64.5q-131 0 -244 64.5t-178.5 174t-65.5 238.5zM178 635q0 -82 39 -149.5t103.5 -107.5t140.5 -40q78 0 142.5 40t102 107.5t37.5 149.5 q0 80 -37.5 147.5t-102 107.5t-142.5 40q-76 0 -140.5 -40t-103.5 -107.5t-39 -147.5zM289 492v276q-2 39 23.5 63.5t72.5 24.5q43 0 68 -25q39 27 92 27q41 0 69.5 -23.5t28.5 -62.5q0 -35 -26.5 -59.5t-71.5 -24.5q-29 0 -45.5 -22.5t-16.5 -57.5v-116q0 -39 -26.5 -62.5 t-71.5 -23.5t-70.5 23.5t-25.5 62.5z" />
<glyph unicode="&#xaf;" horiz-adv-x="741" d="M102 1257q0 37 26 65t69 28h350q43 0 67.5 -27t24.5 -66q0 -37 -24.5 -64.5t-67.5 -27.5h-350q-43 0 -69 28t-26 64z" />
<glyph unicode="&#xb0;" horiz-adv-x="413" d="M-31 1149q0 84 63.5 142.5t153.5 58.5t153.5 -58.5t63.5 -142.5q0 -88 -63.5 -146.5t-153.5 -58.5t-153.5 58.5t-63.5 146.5zM172 1151q0 -12 4 -21.5t12 -9.5q6 0 11.5 8.5t5.5 20.5q0 10 -5 17.5t-12 7.5q-8 0 -12 -7.5t-4 -15.5z" />
<glyph unicode="&#xb1;" horiz-adv-x="970" d="M16 100q0 39 30 70t81 35h647q53 0 83 -30t30 -71t-30 -71.5t-83 -32.5h-643q-53 0 -84 29.5t-31 70.5zM20 637q0 43 29 72.5t82 29.5h205v217q0 51 32.5 79t82.5 28q49 0 84.5 -28.5t35.5 -78.5v-217h203q51 0 81 -30.5t30 -71.5q0 -39 -30 -69.5t-81 -30.5h-203v-205 q0 -51 -33.5 -78t-82.5 -27q-47 0 -83 27t-36 76v207h-205q-53 0 -82 29.5t-29 70.5z" />
<glyph unicode="&#xb4;" horiz-adv-x="598" d="M98 1194q0 45 45 74l215 135q18 12 41 12q39 0 70 -32.5t31 -73.5q0 -49 -49 -76l-215 -113q-20 -12 -46 -12q-37 0 -64.5 25.5t-27.5 60.5z" />
<glyph unicode="&#xb6;" horiz-adv-x="985" d="M-12 973q0 88 46 164.5t125 122t171 45.5h489q53 0 87 -30t34 -79t-33 -76.5t-88 -27.5h-4v-1184q0 -43 -30.5 -74t-86.5 -31q-53 0 -86.5 31t-33.5 74v1184h-146v-1184q0 -43 -31.5 -74t-85.5 -31q-53 0 -86.5 31t-33.5 74v760q-94 39 -150.5 121.5t-56.5 183.5z" />
<glyph unicode="&#xb7;" horiz-adv-x="249" d="M-29 614q0 55 41 92t101 37q61 0 100 -36.5t39 -92.5q0 -57 -38 -91t-101 -34q-61 0 -101.5 35t-40.5 90z" />
<glyph unicode="&#xb8;" horiz-adv-x="622" d="M84 -397q0 35 28.5 62.5t61.5 27.5q20 0 35 -12q31 -27 53.5 -34t52.5 -7q29 0 45.5 18t16.5 41q0 20 -13.5 34.5t-41.5 14.5q-16 0 -25 -2q-23 -6 -48.5 10.5t-25.5 48.5q0 14 2 23l45 172h176l-36 -162q82 0 119.5 -51t37.5 -117q0 -96 -72.5 -149t-172.5 -53 q-74 0 -127.5 15t-90.5 64q-20 27 -20 56z" />
<glyph unicode="&#xbb;" horiz-adv-x="862" d="M-37 219q0 37 37 74l256 246l-256 245q-20 20 -28.5 38t-8.5 38q0 43 35 74t82 31q33 0 48 -6.5t34 -24.5l315 -307q25 -25 38 -46.5t13 -41.5q0 -25 -10 -43.5t-35 -40.5l-311 -301q-43 -39 -92 -39q-53 0 -85 29.5t-32 74.5zM322 219q0 37 36 74l256 246l-256 245 q-20 20 -28 38t-8 38q0 43 34.5 74t81.5 31q33 0 48.5 -6.5t33.5 -24.5l316 -307q27 -25 39 -45.5t12 -42.5q0 -25 -10.5 -43.5t-34.5 -40.5l-312 -301q-43 -39 -92 -39q-53 0 -84.5 29.5t-31.5 74.5z" />
<glyph unicode="&#xbf;" horiz-adv-x="1234" d="M2 158q0 109 47 179.5t112.5 110t176.5 87.5q82 35 123 63.5t41 75.5v41q0 47 35.5 73.5t83.5 26.5q47 0 80.5 -26.5t33.5 -73.5v-43q0 -86 -41 -144.5t-99 -93.5t-155 -76q-96 -39 -147 -80.5t-53 -115.5q0 -78 54 -130t135 -78t159 -26q106 0 200.5 38t126.5 122 q10 31 37 47.5t64 16.5q47 0 84 -28t37 -73q0 -20 -4 -31q-53 -162 -207 -228t-340 -66q-137 0 -271.5 48t-223.5 145t-89 239zM494 952v9q0 47 36.5 74.5t87.5 27.5t91.5 -27.5t40.5 -74.5v-9q0 -47 -39 -75.5t-90 -28.5q-53 0 -90 26.5t-37 77.5z" />
<glyph unicode="&#xc0;" horiz-adv-x="1427" d="M-31 84q0 16 11 41l583 1143q14 33 40 45t67 12q75 0 104 -57l580 -1137q16 -27 16 -55q0 -43 -37 -69.5t-86 -26.5q-31 0 -60.5 15t-43.5 44l-144 285h-659l-143 -285q-14 -31 -42 -45t-61 -14q-47 0 -86 30.5t-39 73.5zM434 1583q0 41 30 75t69 34q18 0 34 -9l246 -124 q57 -31 57 -80q0 -33 -25.5 -58.5t-64.5 -25.5q-18 0 -45 10l-243 100q-57 23 -58 78zM440 522h459l-229 457z" />
<glyph unicode="&#xc1;" horiz-adv-x="1427" d="M-31 84q0 16 11 41l583 1143q14 33 40 45t67 12q75 0 104 -57l580 -1137q16 -27 16 -55q0 -43 -37 -69.5t-86 -26.5q-31 0 -60.5 15t-43.5 44l-144 285h-659l-143 -285q-14 -31 -42 -45t-61 -14q-47 0 -86 30.5t-39 73.5zM440 522h459l-229 457zM461 1479q0 51 56 80 l245 124q17 9 35 9q39 0 68.5 -34t29.5 -75q0 -55 -57 -78l-244 -100q-27 -10 -45 -10q-37 0 -62.5 25.5t-25.5 58.5z" />
<glyph unicode="&#xc2;" horiz-adv-x="1427" d="M-31 84q0 16 11 41l583 1143q14 33 40 45t67 12q75 0 104 -57l580 -1137q16 -27 16 -55q0 -43 -37 -69.5t-86 -26.5q-31 0 -60.5 15t-43.5 44l-144 285h-659l-143 -285q-14 -31 -42 -45t-61 -14q-47 0 -86 30.5t-39 73.5zM400 1473q0 47 47 75l170 109q35 23 53 22 q20 0 55 -22l170 -109q47 -29 47 -75q0 -35 -27.5 -63t-64.5 -28q-25 0 -47 15l-133 76l-131 -76q-25 -12 -47 -13q-37 0 -64.5 27t-27.5 62zM440 522h459l-229 457z" />
<glyph unicode="&#xc3;" horiz-adv-x="1427" d="M-31 84q0 16 11 41l583 1143q14 33 40 45t67 12q75 0 104 -57l580 -1137q16 -27 16 -55q0 -43 -37 -69.5t-86 -26.5q-31 0 -60.5 15t-43.5 44l-144 285h-659l-143 -285q-14 -31 -42 -45t-61 -14q-47 0 -86 30.5t-39 73.5zM340 1503q0 29 20 62q66 100 168 100 q78 0 162 -57q37 -27 66 -27q25 0 38 25q31 45 78 45q37 0 65.5 -27t28.5 -63q0 -23 -12 -48q-31 -57 -78 -85.5t-102 -28.5q-74 0 -143 47q-20 14 -40 23.5t-34 9.5q-27 0 -49 -25q-33 -35 -76 -35q-37 0 -64.5 24.5t-27.5 59.5zM440 522h459l-229 457z" />
<glyph unicode="&#xc4;" horiz-adv-x="1427" d="M-31 84q0 16 11 41l583 1143q14 33 40 45t67 12q75 0 104 -57l580 -1137q16 -27 16 -55q0 -43 -37 -69.5t-86 -26.5q-31 0 -60.5 15t-43.5 44l-144 285h-659l-143 -285q-14 -31 -42 -45t-61 -14q-47 0 -86 30.5t-39 73.5zM344 1522q0 51 40 85.5t93 34.5q50 0 92 -34.5 t42 -85.5q0 -59 -41 -91t-93 -32q-53 0 -93 35.5t-40 87.5zM440 522h459l-229 457zM721 1522q0 51 41 85.5t94 34.5q51 0 93 -34.5t42 -85.5q0 -59 -39.5 -91t-95.5 -32q-53 0 -94 34.5t-41 88.5z" />
<glyph unicode="&#xc5;" horiz-adv-x="1427" d="M-31 84q0 16 11 41l567 1110q-43 27 -66.5 69t-23.5 93q0 86 59 140t154 54q94 0 153.5 -54t59.5 -140q0 -53 -24.5 -95t-67.5 -67l563 -1104q16 -26 16 -55q0 -43 -37 -69.5t-86 -26.5q-31 0 -60.5 15t-43.5 44l-144 285h-659l-143 -285q-14 -31 -42 -45t-61 -14 q-47 0 -86 30.5t-39 73.5zM440 522h459l-229 457zM596 1397q0 -31 20.5 -50.5t53.5 -19.5t53 19.5t20 50.5q0 33 -20.5 52t-52.5 19q-33 0 -53.5 -19t-20.5 -52z" />
<glyph unicode="&#xc6;" horiz-adv-x="2021" d="M-31 84q0 33 21 61l893 1112q29 47 100 48h799q53 0 81.5 -29t28.5 -70t-30.5 -73.5t-81.5 -32.5h-658v-352h623q53 0 84 -31t31 -74q0 -41 -30 -70.5t-85 -29.5h-623v-334h658q51 0 80.5 -32t29.5 -73q0 -43 -29.5 -73.5t-80.5 -30.5h-756q-59 0 -97 36t-38 87v209h-457 l-254 -307q-33 -45 -94 -45q-45 0 -80 30.5t-35 73.5zM584 528h305v390z" />
<glyph unicode="&#xc7;" horiz-adv-x="1366" d="M47 668q0 195 88 344t240.5 231t341.5 82q330 0 510 -203q35 -41 35 -82q0 -43 -33 -71.5t-78 -28.5q-53 0 -94 43q-72 78 -154 105.5t-188 27.5q-129 0 -226.5 -56t-151.5 -157.5t-54 -234.5q0 -143 55 -252t155.5 -168.5t231.5 -59.5q94 0 190.5 48.5t155.5 119.5 q52 60 111 60q43 0 74.5 -29t31.5 -72q0 -39 -31 -82q-72 -102 -197.5 -167.5t-264.5 -81.5l-31 -146q82 0 120 -51t38 -117q0 -96 -73 -149t-173 -53q-74 0 -127 15t-90 64q-20 27 -21 56q0 35 29 62.5t61 27.5q20 0 35 -12q31 -27 53.5 -34t53.5 -7q29 0 45 18t16 41 q0 20 -13 34.5t-42 14.5q-16 0 -25 -2q-23 -6 -48 10.5t-25 48.5q0 14 2 23l36 158q-172 20 -300 111t-198.5 237.5t-70.5 333.5z" />
<glyph unicode="&#xc8;" horiz-adv-x="1308" d="M119 123v1061q0 51 38 86t97 35h813q53 0 81 -29t28 -70q0 -39 -30 -70.5t-79 -31.5h-715v-359h678q49 0 78 -30.5t29 -71.5t-28 -69.5t-79 -28.5h-678v-340h715q51 0 82 -33t31 -74t-30 -69.5t-83 -28.5h-813q-59 0 -97 36t-38 87zM422 1583q0 41 30 75t69 34 q18 0 34 -9l246 -124q57 -31 57 -80q0 -33 -25.5 -58.5t-64.5 -25.5q-18 0 -45 10l-243 100q-57 23 -58 78z" />
<glyph unicode="&#xc9;" horiz-adv-x="1308" d="M119 123v1061q0 51 38 86t97 35h813q53 0 81 -29t28 -70q0 -39 -30 -70.5t-79 -31.5h-715v-359h678q49 0 78 -30.5t29 -71.5t-28 -69.5t-79 -28.5h-678v-340h715q51 0 82 -33t31 -74t-30 -69.5t-83 -28.5h-813q-59 0 -97 36t-38 87zM448 1479q0 51 56 80l245 124 q17 9 35 9q39 0 68.5 -34t29.5 -75q0 -55 -57 -78l-244 -100q-27 -10 -45 -10q-37 0 -62.5 25.5t-25.5 58.5z" />
<glyph unicode="&#xca;" horiz-adv-x="1308" d="M119 123v1061q0 51 38 86t97 35h813q53 0 81 -29t28 -70q0 -39 -30 -70.5t-79 -31.5h-715v-359h678q49 0 78 -30.5t29 -71.5t-28 -69.5t-79 -28.5h-678v-340h715q51 0 82 -33t31 -74t-30 -69.5t-83 -28.5h-813q-59 0 -97 36t-38 87zM387 1473q0 47 47 75l170 109 q35 23 53 22q20 0 55 -22l170 -109q47 -29 47 -75q0 -35 -27.5 -63t-64.5 -28q-25 0 -47 15l-133 76l-131 -76q-25 -12 -47 -13q-37 0 -64.5 27t-27.5 62z" />
<glyph unicode="&#xcb;" horiz-adv-x="1308" d="M119 123v1061q0 51 38 86t97 35h813q53 0 81 -29t28 -70q0 -39 -30 -70.5t-79 -31.5h-715v-359h678q49 0 78 -30.5t29 -71.5t-28 -69.5t-79 -28.5h-678v-340h715q51 0 82 -33t31 -74t-30 -69.5t-83 -28.5h-813q-59 0 -97 36t-38 87zM331 1522q0 51 40 85.5t93 34.5 q50 0 92 -34.5t42 -85.5q0 -59 -41 -91t-93 -32q-53 0 -93 35.5t-40 87.5zM708 1522q0 51 41 85.5t94 34.5q51 0 93 -34.5t42 -85.5q0 -59 -39.5 -91t-95.5 -32q-53 0 -94 34.5t-41 88.5z" />
<glyph unicode="&#xcc;" horiz-adv-x="450" d="M-25 1583q0 41 30 75t69 34q18 0 34 -9l246 -124q57 -31 57 -80q0 -33 -25.5 -58.5t-64.5 -25.5q-18 0 -45 10l-243 100q-57 23 -58 78zM92 104v1090q0 53 35 82t84 29t85 -29t36 -82v-1090q0 -49 -36 -76.5t-85 -27.5t-84 26.5t-35 77.5z" />
<glyph unicode="&#xcd;" horiz-adv-x="450" d="M2 1479q0 51 56 80l245 124q17 9 35 9q39 0 68.5 -34t29.5 -75q0 -55 -57 -78l-244 -100q-27 -10 -45 -10q-37 0 -62.5 25.5t-25.5 58.5zM92 104v1090q0 53 35 82t84 29t85 -29t36 -82v-1090q0 -49 -36 -76.5t-85 -27.5t-84 26.5t-35 77.5z" />
<glyph unicode="&#xce;" horiz-adv-x="450" d="M-59 1473q0 47 47 75l170 109q35 23 53 22q20 0 55 -22l170 -109q47 -29 47 -75q0 -35 -27.5 -63t-64.5 -28q-25 0 -47 15l-133 76l-131 -76q-25 -12 -47 -13q-37 0 -64.5 27t-27.5 62zM92 104v1090q0 53 35 82t84 29t85 -29t36 -82v-1090q0 -49 -36 -76.5t-85 -27.5 t-84 26.5t-35 77.5z" />
<glyph unicode="&#xcf;" horiz-adv-x="450" d="M-115 1522q0 51 40 85.5t93 34.5q50 0 92 -34.5t42 -85.5q0 -59 -41 -91t-93 -32q-53 0 -93 35.5t-40 87.5zM92 104v1090q0 53 35 82t84 29t85 -29t36 -82v-1090q0 -49 -36 -76.5t-85 -27.5t-84 26.5t-35 77.5zM262 1522q0 51 41 85.5t94 34.5q52 0 93.5 -34.5 t41.5 -85.5q0 -59 -39.5 -91t-95.5 -32q-53 0 -94 34.5t-41 88.5z" />
<glyph unicode="&#xd0;" horiz-adv-x="1345" d="M-98 668q0 33 22.5 57.5t61.5 24.5h61v436q0 49 40 84t95 35h422q184 0 324.5 -82t218.5 -229.5t78 -342.5t-78 -342t-218.5 -228t-324.5 -81h-422q-55 0 -95 36t-40 85v465h-61q-39 0 -61.5 24.5t-22.5 57.5zM281 203h323q115 0 202 55t135 157.5t48 235.5t-48 236.5 t-136 160t-201 56.5h-323v-354h163q39 0 60.5 -25t21.5 -57q0 -33 -21.5 -57.5t-60.5 -24.5h-163v-383z" />
<glyph unicode="&#xd1;" horiz-adv-x="1415" d="M109 109v1071q0 59 36.5 92t87.5 33q37 0 66 -15.5t53 -46.5l643 -835l-8 137v659q0 47 38 74t87 27t84 -26t35 -75v-1081q0 -57 -41 -90t-96 -33q-35 0 -69 16.5t-54 42.5l-627 807l8 -114v-643q0 -53 -35.5 -81t-85.5 -28q-51 0 -86.5 27.5t-35.5 81.5zM375 1503 q0 29 20 62q66 100 168 100q78 0 162 -57q37 -27 66 -27q25 0 38 25q31 45 78 45q37 0 65.5 -27t28.5 -63q0 -23 -12 -48q-31 -57 -78 -85.5t-102 -28.5q-74 0 -143 47q-20 14 -40 23.5t-34 9.5q-27 0 -49 -25q-33 -35 -76 -35q-37 0 -64.5 24.5t-27.5 59.5z" />
<glyph unicode="&#xd2;" horiz-adv-x="1525" d="M45 651q0 199 84 352.5t236.5 237.5t351.5 84q197 0 348.5 -84t234 -236.5t82.5 -353.5q0 -198 -82.5 -351t-233.5 -236.5t-349 -83.5q-199 0 -351.5 83.5t-236.5 236.5t-84 351zM287 651q0 -137 53 -241.5t151.5 -163t225.5 -58.5t223 58.5t149.5 163t53.5 241.5 t-53.5 242.5t-149.5 164t-223 58.5t-225.5 -58.5t-151.5 -164t-53 -242.5zM481 1583q0 41 30 75t69 34q18 0 34 -9l246 -124q57 -31 57 -80q0 -33 -25.5 -58.5t-64.5 -25.5q-18 0 -45 10l-243 100q-57 23 -58 78z" />
<glyph unicode="&#xd3;" horiz-adv-x="1525" d="M45 651q0 199 84 352.5t236.5 237.5t351.5 84q197 0 348.5 -84t234 -236.5t82.5 -353.5q0 -198 -82.5 -351t-233.5 -236.5t-349 -83.5q-199 0 -351.5 83.5t-236.5 236.5t-84 351zM287 651q0 -137 53 -241.5t151.5 -163t225.5 -58.5t223 58.5t149.5 163t53.5 241.5 t-53.5 242.5t-149.5 164t-223 58.5t-225.5 -58.5t-151.5 -164t-53 -242.5zM508 1479q0 51 56 80l245 124q17 9 35 9q39 0 68.5 -34t29.5 -75q0 -55 -57 -78l-244 -100q-27 -10 -45 -10q-37 0 -62.5 25.5t-25.5 58.5z" />
<glyph unicode="&#xd4;" horiz-adv-x="1525" d="M45 651q0 199 84 352.5t236.5 237.5t351.5 84q197 0 348.5 -84t234 -236.5t82.5 -353.5q0 -198 -82.5 -351t-233.5 -236.5t-349 -83.5q-199 0 -351.5 83.5t-236.5 236.5t-84 351zM287 651q0 -137 53 -241.5t151.5 -163t225.5 -58.5t223 58.5t149.5 163t53.5 241.5 t-53.5 242.5t-149.5 164t-223 58.5t-225.5 -58.5t-151.5 -164t-53 -242.5zM447 1473q0 47 47 75l170 109q35 23 53 22q20 0 55 -22l170 -109q47 -29 47 -75q0 -35 -27.5 -63t-64.5 -28q-25 0 -47 15l-133 76l-131 -76q-25 -12 -47 -13q-37 0 -64.5 27t-27.5 62z" />
<glyph unicode="&#xd5;" horiz-adv-x="1525" d="M45 651q0 199 84 352.5t236.5 237.5t351.5 84q197 0 348.5 -84t234 -236.5t82.5 -353.5q0 -198 -82.5 -351t-233.5 -236.5t-349 -83.5q-199 0 -351.5 83.5t-236.5 236.5t-84 351zM287 651q0 -137 53 -241.5t151.5 -163t225.5 -58.5t223 58.5t149.5 163t53.5 241.5 t-53.5 242.5t-149.5 164t-223 58.5t-225.5 -58.5t-151.5 -164t-53 -242.5zM387 1503q0 29 20 62q66 100 168 100q78 0 162 -57q37 -27 66 -27q25 0 38 25q31 45 78 45q37 0 65.5 -27t28.5 -63q0 -23 -12 -48q-31 -57 -78 -85.5t-102 -28.5q-74 0 -143 47q-20 14 -40 23.5 t-34 9.5q-27 0 -49 -25q-33 -35 -76 -35q-37 0 -64.5 24.5t-27.5 59.5z" />
<glyph unicode="&#xd6;" horiz-adv-x="1525" d="M45 651q0 199 84 352.5t236.5 237.5t351.5 84q197 0 348.5 -84t234 -236.5t82.5 -353.5q0 -198 -82.5 -351t-233.5 -236.5t-349 -83.5q-199 0 -351.5 83.5t-236.5 236.5t-84 351zM287 651q0 -137 53 -241.5t151.5 -163t225.5 -58.5t223 58.5t149.5 163t53.5 241.5 t-53.5 242.5t-149.5 164t-223 58.5t-225.5 -58.5t-151.5 -164t-53 -242.5zM391 1522q0 51 40 85.5t93 34.5q50 0 92 -34.5t42 -85.5q0 -59 -41 -91t-93 -32q-53 0 -93 35.5t-40 87.5zM768 1522q0 51 41 85.5t94 34.5q51 0 93 -34.5t42 -85.5q0 -59 -39.5 -91t-95.5 -32 q-53 0 -94 34.5t-41 88.5z" />
<glyph unicode="&#xd8;" horiz-adv-x="1525" d="M45 651q0 199 84 352.5t236.5 237.5t351.5 84q154 0 276 -49l72 121q23 41 68 41q33 0 59.5 -23.5t26.5 -56.5q0 -23 -13 -45l-69 -117q118 -90 181.5 -230.5t63.5 -314.5q0 -199 -82.5 -351.5t-233.5 -236t-349 -83.5q-150 0 -281 51l-74 -125q-27 -41 -67 -41 q-33 0 -58.5 23.5t-25.5 56.5q0 25 12 45l72 119q-119 88 -184.5 228t-65.5 314zM287 651q0 -237 119 -356l477 799q-78 23 -166 22q-127 0 -225.5 -58.5t-151.5 -164t-53 -242.5zM547 213q74 -25 170 -25q127 0 223 58.5t149.5 163t53.5 241.5q0 240 -119 359z" />
<glyph unicode="&#xd9;" horiz-adv-x="1554" d="M117 575v627q0 49 34.5 76t84.5 27q51 0 86.5 -27t35.5 -78v-625q0 -170 102.5 -275t270.5 -105q170 0 274.5 105.5t104.5 274.5v621q0 51 36 80t85 29t84 -28t35 -79v-623q0 -176 -77 -311t-216 -209.5t-324 -74.5q-184 0 -323.5 74.5t-216 209.5t-76.5 311zM499 1583 q0 41 30 75t69 34q18 0 34 -9l246 -124q57 -31 57 -80q0 -33 -25.5 -58.5t-64.5 -25.5q-18 0 -45 10l-243 100q-57 23 -58 78z" />
<glyph unicode="&#xda;" horiz-adv-x="1554" d="M117 575v627q0 49 34.5 76t84.5 27q51 0 86.5 -27t35.5 -78v-625q0 -170 102.5 -275t270.5 -105q170 0 274.5 105.5t104.5 274.5v621q0 51 36 80t85 29t84 -28t35 -79v-623q0 -176 -77 -311t-216 -209.5t-324 -74.5q-184 0 -323.5 74.5t-216 209.5t-76.5 311zM526 1479 q0 51 56 80l245 124q17 9 35 9q39 0 68.5 -34t29.5 -75q0 -55 -57 -78l-244 -100q-27 -10 -45 -10q-37 0 -62.5 25.5t-25.5 58.5z" />
<glyph unicode="&#xdb;" horiz-adv-x="1554" d="M117 575v627q0 49 34.5 76t84.5 27q51 0 86.5 -27t35.5 -78v-625q0 -170 102.5 -275t270.5 -105q170 0 274.5 105.5t104.5 274.5v621q0 51 36 80t85 29t84 -28t35 -79v-623q0 -176 -77 -311t-216 -209.5t-324 -74.5q-184 0 -323.5 74.5t-216 209.5t-76.5 311zM465 1473 q0 47 47 75l170 109q35 23 53 22q20 0 55 -22l170 -109q47 -29 47 -75q0 -35 -27.5 -63t-64.5 -28q-25 0 -47 15l-133 76l-131 -76q-25 -12 -47 -13q-37 0 -64.5 27t-27.5 62z" />
<glyph unicode="&#xdc;" horiz-adv-x="1554" d="M117 575v627q0 49 34.5 76t84.5 27q51 0 86.5 -27t35.5 -78v-625q0 -170 102.5 -275t270.5 -105q170 0 274.5 105.5t104.5 274.5v621q0 51 36 80t85 29t84 -28t35 -79v-623q0 -176 -77 -311t-216 -209.5t-324 -74.5q-184 0 -323.5 74.5t-216 209.5t-76.5 311zM409 1522 q0 51 40 85.5t93 34.5q50 0 92 -34.5t42 -85.5q0 -59 -41 -91t-93 -32q-53 0 -93 35.5t-40 87.5zM786 1522q0 51 41 85.5t94 34.5q51 0 93 -34.5t42 -85.5q0 -59 -39.5 -91t-95.5 -32q-53 0 -94 34.5t-41 88.5z" />
<glyph unicode="&#xdd;" horiz-adv-x="1263" d="M-8 1198q0 45 33.5 76t80.5 31q68 0 109 -58l377 -514l377 508q47 63 110 64q43 0 76 -32t33 -77q0 -37 -27 -72l-448 -600v-401q0 -53 -38 -88t-81 -35q-51 0 -85 34t-34 89v401l-459 606q-25 35 -24 68zM424 1479q0 51 56 80l245 124q17 9 35 9q39 0 68.5 -34t29.5 -75 q0 -55 -57 -78l-244 -100q-27 -10 -45 -10q-37 0 -62.5 25.5t-25.5 58.5z" />
<glyph unicode="&#xde;" horiz-adv-x="1298" d="M119 109v1093q0 47 34.5 75t82.5 28q47 0 82.5 -27t35.5 -78v-76h295q174 0 299 -68.5t188.5 -180t63.5 -238.5q0 -129 -61.5 -232.5t-186.5 -164t-303 -60.5h-295v-69q0 -53 -35.5 -82t-82.5 -29t-82 28.5t-35 80.5zM354 385h295q156 0 234 71.5t78 176.5 q0 72 -38 137.5t-109 107.5t-165 42h-295v-535z" />
<glyph unicode="&#xdf;" horiz-adv-x="1103" d="M74 -256v1219q0 197 122.5 279.5t295.5 82.5q174 0 301 -84t127 -278q0 -61 -36 -141.5t-87 -127.5q102 -41 155.5 -118.5t53.5 -184.5q0 -213 -143.5 -302t-366.5 -89h-109q-51 0 -80 29v-285q0 -47 -35.5 -73.5t-83.5 -26.5q-47 0 -80.5 26.5t-33.5 73.5zM307 170 q25 29 80 29h109q276 0 276 192q0 86 -68.5 131t-175.5 45h-145q-47 0 -76 29v-426zM307 741q29 29 76 29h53q102 0 176 54.5t74 138.5q0 86 -59.5 124.5t-137.5 38.5q-76 0 -129 -37.5t-53 -125.5v-222z" />
<glyph unicode="&#xe0;" d="M41 524q0 158 63.5 280t177 190.5t263.5 68.5q70 0 148.5 -26.5t144.5 -75.5q8 39 37.5 60t76.5 21q52 0 84.5 -29.5t32.5 -76.5v-830q0 -47 -32.5 -76.5t-84.5 -29.5q-49 0 -78.5 23.5t-35.5 62.5q-68 -53 -153 -79.5t-167 -26.5q-147 0 -254.5 67.5t-165 190 t-57.5 286.5zM274 522q0 -152 74 -244t195 -92q96 0 177 41t116 117v354q-37 74 -114 116t-161 42q-129 0 -208 -93t-79 -241zM385 1335q0 39 30.5 72.5t69.5 33.5q23 0 41 -12l213 -135q47 -29 47 -74q0 -35 -27.5 -60.5t-64.5 -25.5q-23 0 -45 12l-215 113q-49 27 -49 76z " />
<glyph unicode="&#xe1;" d="M41 524q0 158 63.5 280t177 190.5t263.5 68.5q70 0 148.5 -26.5t144.5 -75.5q8 39 37.5 60t76.5 21q52 0 84.5 -29.5t32.5 -76.5v-830q0 -47 -32.5 -76.5t-84.5 -29.5q-49 0 -78.5 23.5t-35.5 62.5q-68 -53 -153 -79.5t-167 -26.5q-147 0 -254.5 67.5t-165 190 t-57.5 286.5zM274 522q0 -152 74 -244t195 -92q96 0 177 41t116 117v354q-37 74 -114 116t-161 42q-129 0 -208 -93t-79 -241zM395 1214q0 45 45 74l215 135q18 12 41 12q39 0 70 -32.5t31 -73.5q0 -49 -49 -76l-215 -113q-20 -12 -46 -12q-37 0 -64.5 25.5t-27.5 60.5z" />
<glyph unicode="&#xe2;" d="M41 524q0 158 63.5 280t177 190.5t263.5 68.5q70 0 148.5 -26.5t144.5 -75.5q8 39 37.5 60t76.5 21q52 0 84.5 -29.5t32.5 -76.5v-830q0 -47 -32.5 -76.5t-84.5 -29.5q-49 0 -78.5 23.5t-35.5 62.5q-68 -53 -153 -79.5t-167 -26.5q-147 0 -254.5 67.5t-165 190 t-57.5 286.5zM274 522q0 -152 74 -244t195 -92q96 0 177 41t116 117v354q-37 74 -114 116t-161 42q-129 0 -208 -93t-79 -241zM322 1224q0 47 47 76l170 109q35 23 53 22q20 0 55 -22l170 -109q47 -29 47 -76q0 -35 -27.5 -62.5t-64.5 -27.5q-25 0 -47 14l-133 76l-131 -76 q-25 -12 -47 -12q-37 0 -64.5 26.5t-27.5 61.5z" />
<glyph unicode="&#xe3;" d="M41 524q0 158 63.5 280t177 190.5t263.5 68.5q70 0 148.5 -26.5t144.5 -75.5q8 39 37.5 60t76.5 21q52 0 84.5 -29.5t32.5 -76.5v-830q0 -47 -32.5 -76.5t-84.5 -29.5q-49 0 -78.5 23.5t-35.5 62.5q-68 -53 -153 -79.5t-167 -26.5q-147 0 -254.5 67.5t-165 190 t-57.5 286.5zM262 1253q0 29 20 61q66 101 168 101q78 0 162 -58q37 -27 66 -26q25 0 38 24q31 45 78 45q37 0 65.5 -26.5t28.5 -63.5q0 -23 -12 -47q-31 -57 -78 -86t-102 -29q-74 0 -143 48q-20 14 -40 23t-34 9q-27 0 -49 -24q-33 -35 -76 -35q-37 0 -64.5 24.5 t-27.5 59.5zM274 522q0 -152 74 -244t195 -92q96 0 177 41t116 117v354q-37 74 -114 116t-161 42q-129 0 -208 -93t-79 -241z" />
<glyph unicode="&#xe4;" d="M41 524q0 158 63.5 280t177 190.5t263.5 68.5q70 0 148.5 -26.5t144.5 -75.5q8 39 37.5 60t76.5 21q52 0 84.5 -29.5t32.5 -76.5v-830q0 -47 -32.5 -76.5t-84.5 -29.5q-49 0 -78.5 23.5t-35.5 62.5q-68 -53 -153 -79.5t-167 -26.5q-147 0 -254.5 67.5t-165 190 t-57.5 286.5zM272 1280q0 51 40 85.5t94 34.5q49 0 91 -34.5t42 -85.5q0 -59 -41 -91t-92 -32q-53 0 -93.5 35.5t-40.5 87.5zM274 522q0 -152 74 -244t195 -92q96 0 177 41t116 117v354q-37 74 -114 116t-161 42q-129 0 -208 -93t-79 -241zM649 1280q0 51 41 85.5t94 34.5 q52 0 94 -34.5t42 -85.5q0 -59 -40 -91t-96 -32q-53 0 -94 34.5t-41 88.5z" />
<glyph unicode="&#xe5;" d="M41 524q0 158 63.5 280t177 190.5t263.5 68.5q70 0 148.5 -26.5t144.5 -75.5q8 39 37.5 60t76.5 21q52 0 84.5 -29.5t32.5 -76.5v-830q0 -47 -32.5 -76.5t-84.5 -29.5q-49 0 -78.5 23.5t-35.5 62.5q-68 -53 -153 -79.5t-167 -26.5q-147 0 -254.5 67.5t-165 190 t-57.5 286.5zM274 522q0 -152 74 -244t195 -92q96 0 177 41t116 117v354q-37 74 -114 116t-161 42q-129 0 -208 -93t-79 -241zM379 1323q0 86 59 140t154 54q94 0 153.5 -54t59.5 -140q0 -84 -59.5 -138.5t-153.5 -54.5t-153.5 54.5t-59.5 138.5zM518 1323q0 -31 20.5 -50.5 t53.5 -19.5t53 19.5t20 50.5q0 33 -20.5 52t-52.5 19q-33 0 -53.5 -19.5t-20.5 -51.5z" />
<glyph unicode="&#xe6;" horiz-adv-x="2136" d="M76 545q0 162 75.5 279.5t199.5 178t267 60.5q87 0 161.5 -39t94.5 -92q0 111 109 110q47 0 82 -27.5t35 -86.5q88 135 313 135q139 0 262 -59.5t201 -180.5t80 -295q0 -133 -141 -133h-699q35 -94 119 -151.5t186 -57.5q51 0 108.5 20.5t104.5 55.5q37 25 80 25 q47 0 82 -28t35 -71q0 -41 -43 -84q-70 -63 -166 -93.5t-205 -30.5q-205 0 -315 120q0 -47 -36 -73.5t-81 -26.5q-43 0 -77 27.5t-34 74.5q-35 -68 -112.5 -95t-153.5 -27q-115 0 -198 34q-166 70 -250 209t-84 322zM309 541q0 -98 37 -179t103.5 -128.5t150.5 -47.5 q113 0 195 69t82 191v148q0 111 -78 186.5t-189 75.5q-94 0 -161.5 -44t-103.5 -115.5t-36 -155.5zM1108 598h606q-23 133 -103.5 196.5t-193.5 63.5q-121 0 -201.5 -70.5t-107.5 -189.5z" />
<glyph unicode="&#xe7;" horiz-adv-x="1101" d="M39 516q0 164 66.5 288t187.5 191.5t280 67.5q119 0 214.5 -38t175.5 -128q33 -39 32 -76q0 -43 -30.5 -71.5t-71.5 -28.5q-49 0 -84 41q-45 51 -106.5 75.5t-129.5 24.5q-135 0 -217 -94t-82 -250q0 -152 84 -244t224 -92q66 0 128 22.5t109 69.5q47 48 96 48 q41 0 69 -28t28 -69q0 -45 -35 -82q-127 -141 -334 -161l-33 -144q82 0 120 -51t38 -117q0 -96 -72.5 -149t-173.5 -53q-74 0 -127 15t-90 64q-20 27 -20 56q0 35 28.5 62.5t61.5 27.5q20 0 35 -12q31 -27 53 -34t53 -7q29 0 45.5 18t16.5 41q0 20 -13.5 34.5t-42.5 14.5 q-16 0 -24 -2q-23 -6 -48.5 10.5t-25.5 48.5q0 14 2 23l43 160q-199 35 -314.5 176t-115.5 352z" />
<glyph unicode="&#xe8;" horiz-adv-x="1267" d="M51 498q0 168 65.5 296t186.5 198.5t283 70.5q242 0 377 -145.5t137 -387.5q0 -61 -24.5 -91.5t-104.5 -30.5h-682q29 -100 108.5 -163t188.5 -63q131 0 223 72q45 39 92 39q43 0 73 -31t30 -72q0 -47 -41 -88q-68 -66 -165.5 -95.5t-205.5 -26.5q-160 0 -283 65.5 t-190.5 183t-67.5 269.5zM287 590h596q-12 127 -84 198.5t-211 71.5q-119 0 -199 -73.5t-102 -196.5zM361 1335q0 39 30.5 72.5t69.5 33.5q23 0 41 -12l213 -135q47 -29 47 -74q0 -35 -27.5 -60.5t-64.5 -25.5q-23 0 -45 12l-215 113q-49 27 -49 76z" />
<glyph unicode="&#xe9;" horiz-adv-x="1267" d="M51 498q0 168 65.5 296t186.5 198.5t283 70.5q242 0 377 -145.5t137 -387.5q0 -61 -24.5 -91.5t-104.5 -30.5h-682q29 -100 108.5 -163t188.5 -63q131 0 223 72q45 39 92 39q43 0 73 -31t30 -72q0 -47 -41 -88q-68 -66 -165.5 -95.5t-205.5 -26.5q-160 0 -283 65.5 t-190.5 183t-67.5 269.5zM287 590h596q-12 127 -84 198.5t-211 71.5q-119 0 -199 -73.5t-102 -196.5zM370 1214q0 45 45 74l215 135q18 12 41 12q39 0 70 -32.5t31 -73.5q0 -49 -49 -76l-215 -113q-20 -12 -46 -12q-37 0 -64.5 25.5t-27.5 60.5z" />
<glyph unicode="&#xea;" horiz-adv-x="1267" d="M51 498q0 168 65.5 296t186.5 198.5t283 70.5q242 0 377 -145.5t137 -387.5q0 -61 -24.5 -91.5t-104.5 -30.5h-682q29 -100 108.5 -163t188.5 -63q131 0 223 72q45 39 92 39q43 0 73 -31t30 -72q0 -47 -41 -88q-68 -66 -165.5 -95.5t-205.5 -26.5q-160 0 -283 65.5 t-190.5 183t-67.5 269.5zM287 590h596q-12 127 -84 198.5t-211 71.5q-119 0 -199 -73.5t-102 -196.5zM297 1224q0 47 47 76l170 109q35 23 53 22q20 0 55 -22l170 -109q47 -29 47 -76q0 -35 -27.5 -62.5t-64.5 -27.5q-25 0 -47 14l-133 76l-131 -76q-25 -12 -47 -12 q-37 0 -64.5 26.5t-27.5 61.5z" />
<glyph unicode="&#xeb;" horiz-adv-x="1267" d="M51 498q0 168 65.5 296t186.5 198.5t283 70.5q242 0 377 -145.5t137 -387.5q0 -61 -24.5 -91.5t-104.5 -30.5h-682q29 -100 108.5 -163t188.5 -63q131 0 223 72q45 39 92 39q43 0 73 -31t30 -72q0 -47 -41 -88q-68 -66 -165.5 -95.5t-205.5 -26.5q-160 0 -283 65.5 t-190.5 183t-67.5 269.5zM247 1280q0 51 40 85.5t94 34.5q49 0 91 -34.5t42 -85.5q0 -59 -41 -91t-92 -32q-53 0 -93.5 35.5t-40.5 87.5zM287 590h596q-12 127 -84 198.5t-211 71.5q-119 0 -199 -73.5t-102 -196.5zM624 1280q0 51 41 85.5t94 34.5q52 0 94 -34.5t42 -85.5 q0 -59 -40 -91t-96 -32q-53 0 -94 34.5t-41 88.5z" />
<glyph unicode="&#xec;" horiz-adv-x="411" d="M-19 1315q0 39 31 72.5t70 33.5q23 0 41 -12l213 -135q47 -29 47 -74q0 -35 -28 -60.5t-64 -25.5q-25 0 -46 12l-215 113q-49 27 -49 76zM72 100v842q0 47 35.5 73.5t80.5 26.5q47 0 82 -26.5t35 -71.5v-844q0 -47 -34.5 -73.5t-82.5 -26.5q-45 0 -80.5 26.5t-35.5 73.5z " />
<glyph unicode="&#xed;" horiz-adv-x="411" d="M-8 1194q0 45 45 74l215 135q18 12 41 12q39 0 70 -32.5t31 -73.5q0 -49 -49 -76l-215 -113q-20 -12 -46 -12q-37 0 -64.5 25.5t-27.5 60.5zM72 100v842q0 47 35.5 73.5t80.5 26.5q47 0 82 -26.5t35 -71.5v-844q0 -47 -34.5 -73.5t-82.5 -26.5q-45 0 -80.5 26.5 t-35.5 73.5z" />
<glyph unicode="&#xee;" horiz-adv-x="411" d="M-82 1204q0 47 47 76l170 109q35 23 55 22q18 0 54 -22l170 -109q47 -29 47 -76q0 -35 -27.5 -62.5t-64.5 -27.5q-25 0 -47 14l-134 76l-131 -76q-25 -12 -47 -12q-37 0 -64.5 26.5t-27.5 61.5zM72 100v842q0 47 35.5 73.5t80.5 26.5q47 0 82 -26.5t35 -71.5v-844 q0 -47 -34.5 -73.5t-82.5 -26.5q-45 0 -80.5 26.5t-35.5 73.5z" />
<glyph unicode="&#xef;" horiz-adv-x="411" d="M-131 1260q0 51 40 85.5t94 34.5q49 0 91 -34.5t42 -85.5q0 -59 -41 -91t-92 -32q-53 0 -93.5 35.5t-40.5 87.5zM72 100v842q0 47 35.5 73.5t80.5 26.5q47 0 82 -26.5t35 -71.5v-844q0 -47 -34.5 -73.5t-82.5 -26.5q-45 0 -80.5 26.5t-35.5 73.5zM246 1260q0 51 41 85.5 t94 34.5q52 0 94 -34.5t42 -85.5q0 -59 -40 -91t-96 -32q-53 0 -94 34.5t-41 88.5z" />
<glyph unicode="&#xf0;" horiz-adv-x="1187" d="M25 508q0 129 59 241.5t178 181t287 68.5q213 0 299 -163q0 109 -54.5 173t-144.5 91q-55 16 -127 16q-76 0 -149.5 -19.5t-126.5 -54.5q-41 -27 -82 -26q-43 0 -70.5 26.5t-27.5 65.5q0 61 67 109q88 59 188.5 83.5t184.5 24.5q57 0 100 -8l35 102q8 27 29.5 41.5 t46.5 14.5q35 0 62.5 -22.5t27.5 -57.5q0 -14 -6 -31l-35 -94q125 -58 200.5 -164.5t75.5 -249.5v-438q0 -127 -67.5 -227.5t-175 -155.5t-224.5 -55q-174 0 -297.5 74.5t-188 196.5t-64.5 257zM266 502q0 -80 37 -154t107.5 -120t164.5 -46t162 66.5t74 171.5v153 q0 68 -41 117t-96.5 76t-98.5 27q-150 0 -229.5 -85t-79.5 -206z" />
<glyph unicode="&#xf1;" horiz-adv-x="1320" d="M102 104v834q0 49 35 76.5t82 27.5q45 0 81 -27.5t36 -72.5v-14q145 135 354 135q211 0 331 -135t120 -359v-463q0 -49 -31 -77.5t-86 -28.5q-51 0 -84 29.5t-33 76.5v467q0 133 -62.5 209t-189.5 76q-59 0 -135 -40t-130 -120t-54 -190v-404q0 -49 -28.5 -76.5 t-84.5 -27.5q-55 0 -88 27.5t-33 76.5zM283 1253q0 29 20 61q66 101 168 101q78 0 162 -58q37 -27 66 -26q25 0 38 24q31 45 78 45q37 0 65.5 -26.5t28.5 -63.5q0 -23 -12 -47q-31 -57 -78 -86t-102 -29q-74 0 -143 48q-20 14 -40 23t-34 9q-27 0 -49 -24q-33 -35 -76 -35 q-37 0 -64.5 24.5t-27.5 59.5z" />
<glyph unicode="&#xf2;" horiz-adv-x="1214" d="M41 516q0 162 68.5 286t191.5 192.5t285 68.5t285.5 -68.5t191 -192.5t67.5 -286q-2 -160 -70.5 -281.5t-191.5 -188t-282 -66.5q-160 0 -283 66.5t-191.5 188t-70.5 281.5zM281 516q0 -147 84 -239.5t221 -92.5t221 92.5t84 239.5q0 152 -84 247t-221 95t-221 -95 t-84 -247zM379 1335q0 39 30.5 72.5t69.5 33.5q23 0 41 -12l213 -135q47 -29 47 -74q0 -35 -27.5 -60.5t-64.5 -25.5q-23 0 -45 12l-215 113q-49 27 -49 76z" />
<glyph unicode="&#xf3;" horiz-adv-x="1214" d="M41 516q0 162 68.5 286t191.5 192.5t285 68.5t285.5 -68.5t191 -192.5t67.5 -286q-2 -160 -70.5 -281.5t-191.5 -188t-282 -66.5q-160 0 -283 66.5t-191.5 188t-70.5 281.5zM281 516q0 -147 84 -239.5t221 -92.5t221 92.5t84 239.5q0 152 -84 247t-221 95t-221 -95 t-84 -247zM389 1214q0 45 45 74l215 135q18 12 41 12q39 0 70 -32.5t31 -73.5q0 -49 -49 -76l-215 -113q-20 -12 -46 -12q-37 0 -64.5 25.5t-27.5 60.5z" />
<glyph unicode="&#xf4;" horiz-adv-x="1214" d="M41 516q0 162 68.5 286t191.5 192.5t285 68.5t285.5 -68.5t191 -192.5t67.5 -286q-2 -160 -70.5 -281.5t-191.5 -188t-282 -66.5q-160 0 -283 66.5t-191.5 188t-70.5 281.5zM281 516q0 -147 84 -239.5t221 -92.5t221 92.5t84 239.5q0 152 -84 247t-221 95t-221 -95 t-84 -247zM316 1224q0 47 47 76l170 109q35 23 53 22q20 0 55 -22l170 -109q47 -29 47 -76q0 -35 -27.5 -62.5t-64.5 -27.5q-25 0 -47 14l-133 76l-131 -76q-25 -12 -47 -12q-37 0 -64.5 26.5t-27.5 61.5z" />
<glyph unicode="&#xf5;" horiz-adv-x="1214" d="M41 516q0 162 68.5 286t191.5 192.5t285 68.5t285.5 -68.5t191 -192.5t67.5 -286q-2 -160 -70.5 -281.5t-191.5 -188t-282 -66.5q-160 0 -283 66.5t-191.5 188t-70.5 281.5zM256 1253q0 29 20 61q66 101 168 101q78 0 162 -58q37 -27 66 -26q25 0 38 24q31 45 78 45 q37 0 65.5 -26.5t28.5 -63.5q0 -23 -12 -47q-31 -57 -78 -86t-102 -29q-74 0 -143 48q-20 14 -40 23t-34 9q-27 0 -49 -24q-33 -35 -76 -35q-37 0 -64.5 24.5t-27.5 59.5zM281 516q0 -147 84 -239.5t221 -92.5t221 92.5t84 239.5q0 152 -84 247t-221 95t-221 -95t-84 -247z " />
<glyph unicode="&#xf6;" horiz-adv-x="1214" d="M41 516q0 162 68.5 286t191.5 192.5t285 68.5t285.5 -68.5t191 -192.5t67.5 -286q-2 -160 -70.5 -281.5t-191.5 -188t-282 -66.5q-160 0 -283 66.5t-191.5 188t-70.5 281.5zM266 1280q0 51 40 85.5t94 34.5q49 0 91 -34.5t42 -85.5q0 -59 -41 -91t-92 -32 q-53 0 -93.5 35.5t-40.5 87.5zM281 516q0 -147 84 -239.5t221 -92.5t221 92.5t84 239.5q0 152 -84 247t-221 95t-221 -95t-84 -247zM643 1280q0 51 41 85.5t94 34.5q52 0 94 -34.5t42 -85.5q0 -59 -40 -91t-96 -32q-53 0 -94 34.5t-41 88.5z" />
<glyph unicode="&#xf7;" horiz-adv-x="1001" d="M6 616q0 39 31 69t84 30h655q55 0 88 -30t33 -71q0 -39 -31.5 -67.5t-89.5 -28.5h-655q-53 0 -84 30t-31 68zM309 365q0 53 36 86.5t95 33.5q58 0 96.5 -33.5t38.5 -86.5t-38.5 -87t-96.5 -34q-59 0 -95 33.5t-36 87.5zM309 864q0 55 36 89t95 34q58 0 96.5 -34.5 t38.5 -88.5q0 -51 -38.5 -85t-96.5 -34q-59 0 -95 33t-36 86z" />
<glyph unicode="&#xf8;" horiz-adv-x="1214" d="M41 516q0 162 68.5 286t191.5 192.5t285 68.5q111 0 209 -35l55 94q23 41 68 41q33 0 59.5 -23.5t26.5 -56.5q0 -23 -13 -45l-53 -88q92 -73 142 -185t50 -249q-2 -160 -70.5 -280.5t-191.5 -187t-282 -66.5q-109 0 -207 32l-57 -94q-27 -41 -68 -41q-33 0 -58.5 23.5 t-25.5 56.5q0 25 12 45l54 88q-92 72 -142.5 180.5t-52.5 243.5zM281 516q-1 -151 67 -235l338 565q-47 12 -100 12q-137 0 -221 -95t-84 -247zM487 197q47 -10 99 -11q137 0 221 91.5t84 238.5q0 158 -68 244z" />
<glyph unicode="&#xf9;" horiz-adv-x="1314" d="M98 477v451q0 49 32 81.5t85 32.5q51 0 84 -32.5t33 -81.5v-455q0 -137 62.5 -213t189.5 -76q57 0 129.5 41t125 121t52.5 191v391q0 51 29.5 82.5t85.5 31.5q53 0 85.5 -32.5t32.5 -81.5v-824q0 -47 -35.5 -75.5t-80.5 -28.5q-47 0 -82 28.5t-35 77.5v9 q-139 -135 -342 -135q-213 0 -332 133t-119 364zM406 1315q0 39 30.5 72.5t69.5 33.5q23 0 41 -12l213 -135q47 -29 47 -74q0 -35 -27.5 -60.5t-64.5 -25.5q-23 0 -45 12l-215 113q-49 27 -49 76z" />
<glyph unicode="&#xfa;" horiz-adv-x="1314" d="M98 477v451q0 49 32 81.5t85 32.5q51 0 84 -32.5t33 -81.5v-455q0 -137 62.5 -213t189.5 -76q57 0 129.5 41t125 121t52.5 191v391q0 51 29.5 82.5t85.5 31.5q53 0 85.5 -32.5t32.5 -81.5v-824q0 -47 -35.5 -75.5t-80.5 -28.5q-47 0 -82 28.5t-35 77.5v9 q-139 -135 -342 -135q-213 0 -332 133t-119 364zM415 1194q0 45 45 74l215 135q18 12 41 12q39 0 70 -32.5t31 -73.5q0 -49 -49 -76l-215 -113q-20 -12 -46 -12q-37 0 -64.5 25.5t-27.5 60.5z" />
<glyph unicode="&#xfb;" horiz-adv-x="1314" d="M98 477v451q0 49 32 81.5t85 32.5q51 0 84 -32.5t33 -81.5v-455q0 -137 62.5 -213t189.5 -76q57 0 129.5 41t125 121t52.5 191v391q0 51 29.5 82.5t85.5 31.5q53 0 85.5 -32.5t32.5 -81.5v-824q0 -47 -35.5 -75.5t-80.5 -28.5q-47 0 -82 28.5t-35 77.5v9 q-139 -135 -342 -135q-213 0 -332 133t-119 364zM342 1204q0 47 47 76l170 109q35 23 53 22q20 0 55 -22l170 -109q47 -29 47 -76q0 -35 -27.5 -62.5t-64.5 -27.5q-25 0 -47 14l-133 76l-131 -76q-25 -12 -47 -12q-37 0 -64.5 26.5t-27.5 61.5z" />
<glyph unicode="&#xfc;" horiz-adv-x="1314" d="M98 477v451q0 49 32 81.5t85 32.5q51 0 84 -32.5t33 -81.5v-455q0 -137 62.5 -213t189.5 -76q57 0 129.5 41t125 121t52.5 191v391q0 51 29.5 82.5t85.5 31.5q53 0 85.5 -32.5t32.5 -81.5v-824q0 -47 -35.5 -75.5t-80.5 -28.5q-47 0 -82 28.5t-35 77.5v9 q-139 -135 -342 -135q-213 0 -332 133t-119 364zM292 1260q0 51 40 85.5t94 34.5q49 0 91 -34.5t42 -85.5q0 -59 -41 -91t-92 -32q-53 0 -93.5 35.5t-40.5 87.5zM669 1260q0 51 41 85.5t94 34.5q52 0 94 -34.5t42 -85.5q0 -59 -40 -91t-96 -32q-53 0 -94 34.5t-41 88.5z" />
<glyph unicode="&#xfd;" horiz-adv-x="1144" d="M-10 926q0 47 35.5 81.5t80.5 34.5q33 0 63 -20.5t46 -52.5l315 -617l316 619q14 33 43 52t65 19q45 0 79 -33.5t34 -80.5q0 -16 -6 -39l-598 -1174q-20 -39 -52 -61.5t-67 -22.5q-43 0 -75.5 33t-32.5 78q0 23 12 51l155 307l-403 781q-10 27 -10 45zM334 1194 q0 45 45 74l215 135q18 12 41 12q39 0 70 -32.5t31 -73.5q0 -49 -49 -76l-215 -113q-20 -12 -46 -12q-37 0 -64.5 25.5t-27.5 60.5z" />
<glyph unicode="&#xfe;" horiz-adv-x="1247" d="M102 -244v1555q0 47 32 75.5t87 28.5q53 0 84 -28.5t31 -75.5v-340q104 80 250 84q135 0 219 -39l2 2q152 -59 237.5 -193.5t85.5 -298.5q0 -174 -86 -310t-247 -202l2 2q-96 -39 -203 -39q-70 0 -137.5 20.5t-122.5 61.5v-303q0 -49 -32 -75.5t-85 -26.5q-51 0 -84 27.5 t-33 74.5zM336 444q8 -114 84 -186t184 -74q98 6 168 64q125 102 125 282q0 68 -25 138v-2q-35 84 -112.5 132t-165.5 50q-104 -4 -174 -79t-84 -181v-144z" />
<glyph unicode="&#xff;" horiz-adv-x="1144" d="M-10 926q0 47 35.5 81.5t80.5 34.5q33 0 63 -20.5t46 -52.5l315 -617l316 619q14 33 43 52t65 19q45 0 79 -33.5t34 -80.5q0 -16 -6 -39l-598 -1174q-20 -39 -52 -61.5t-67 -22.5q-43 0 -75.5 33t-32.5 78q0 23 12 51l155 307l-403 781q-10 27 -10 45zM211 1260 q0 51 40 85.5t94 34.5q49 0 91 -34.5t42 -85.5q0 -59 -41 -91t-92 -32q-53 0 -93.5 35.5t-40.5 87.5zM588 1260q0 51 41 85.5t94 34.5q52 0 94 -34.5t42 -85.5q0 -59 -40 -91t-96 -32q-53 0 -94 34.5t-41 88.5z" />
<glyph unicode="&#x152;" horiz-adv-x="2177" d="M72 651q0 164 65.5 307.5t188.5 239.5t288 123q61 4 111 4q199 0 313 -78q31 57 119 58h737q49 0 80 -31t31 -74q0 -41 -29.5 -70.5t-83.5 -29.5h-641v-352h604q49 0 77 -31t28 -74q0 -41 -26.5 -70.5t-78.5 -29.5h-604v-334h641q51 0 80 -31t29 -74t-28.5 -73.5 t-80.5 -30.5h-731q-84 0 -121 61q-59 -39 -142 -60t-161 -21q-180 0 -332.5 81.5t-242.5 235.5t-90 354zM309 649q0 -137 58.5 -242.5t157 -164t212.5 -58.5q78 0 152 27t131 78v725q-63 49 -141 76.5t-152 27.5q-49 0 -78 -4q-155 -24 -247.5 -156.5t-92.5 -308.5z" />
<glyph unicode="&#x153;" horiz-adv-x="2164" d="M33 559q14 154 95 268.5t202 175t254 60.5q272 0 426 -209q82 109 193.5 159t238.5 50q149 0 270 -69.5t193.5 -190.5t85.5 -275q0 -53 -33 -95t-109 -42h-698q37 -88 113.5 -145.5t183.5 -57.5q111 0 215 76q37 35 86 35q45 0 77 -30.5t32 -78.5q0 -45 -35 -81 q-70 -66 -168.5 -97.5t-208.5 -31.5q-281 0 -434 196q-68 -88 -184.5 -142t-243.5 -54q-166 0 -294 75.5t-195.5 207.5t-61.5 296zM270 516q0 -88 40 -162.5t112 -120t162 -45.5q88 0 158.5 44t111.5 119t41 161q0 90 -40 169t-111.5 126t-161.5 47q-133 0 -222.5 -90 t-89.5 -248zM1139 586h610q-25 141 -107.5 205.5t-195.5 64.5q-121 0 -203 -66.5t-104 -203.5z" />
<glyph unicode="&#x178;" horiz-adv-x="1263" d="M-8 1198q0 45 33.5 76t80.5 31q68 0 109 -58l377 -514l377 508q47 63 110 64q43 0 76 -32t33 -77q0 -37 -27 -72l-448 -600v-401q0 -53 -38 -88t-81 -35q-51 0 -85 34t-34 89v401l-459 606q-25 35 -24 68zM307 1522q0 51 40 85.5t93 34.5q50 0 92 -34.5t42 -85.5 q0 -59 -41 -91t-93 -32q-53 0 -93 35.5t-40 87.5zM684 1522q0 51 41 85.5t94 34.5q51 0 93 -34.5t42 -85.5q0 -59 -39.5 -91t-95.5 -32q-53 0 -94 34.5t-41 88.5z" />
<glyph unicode="&#x2c6;" horiz-adv-x="661" d="M90 1204q0 47 47 76l170 109q35 23 55 22q18 0 54 -22l170 -109q47 -29 47 -76q0 -35 -27.5 -62.5t-64.5 -27.5q-25 0 -47 14l-134 76l-131 -76q-25 -12 -47 -12q-37 0 -64.5 26.5t-27.5 61.5z" />
<glyph unicode="&#x2dc;" horiz-adv-x="722" d="M31 1233q0 29 20 61q66 101 168 101q78 0 162 -58q37 -27 65 -26q25 0 39 24q31 45 78 45q37 0 65.5 -26.5t28.5 -63.5q0 -23 -12 -47q-31 -57 -78 -86t-102 -29q-74 0 -143 48q-20 14 -40 23t-34 9q-27 0 -49 -24q-33 -35 -76 -35q-37 0 -64.5 24.5t-27.5 59.5z" />
<glyph unicode="&#x2000;" horiz-adv-x="846" />
<glyph unicode="&#x2001;" horiz-adv-x="1692" />
<glyph unicode="&#x2002;" horiz-adv-x="846" />
<glyph unicode="&#x2003;" horiz-adv-x="1692" />
<glyph unicode="&#x2004;" horiz-adv-x="564" />
<glyph unicode="&#x2005;" horiz-adv-x="423" />
<glyph unicode="&#x2006;" horiz-adv-x="282" />
<glyph unicode="&#x2007;" horiz-adv-x="282" />
<glyph unicode="&#x2008;" horiz-adv-x="211" />
<glyph unicode="&#x2009;" horiz-adv-x="338" />
<glyph unicode="&#x200a;" horiz-adv-x="94" />
<glyph unicode="&#x2010;" horiz-adv-x="747" d="M27 608q0 43 31.5 74t86.5 31h390q57 0 88.5 -31t31.5 -74q0 -41 -31.5 -71.5t-88.5 -30.5h-390q-57 0 -87.5 30.5t-30.5 71.5z" />
<glyph unicode="&#x2011;" horiz-adv-x="747" d="M27 608q0 43 31.5 74t86.5 31h390q57 0 88.5 -31t31.5 -74q0 -41 -31.5 -71.5t-88.5 -30.5h-390q-57 0 -87.5 30.5t-30.5 71.5z" />
<glyph unicode="&#x2012;" horiz-adv-x="747" d="M27 608q0 43 31.5 74t86.5 31h390q57 0 88.5 -31t31.5 -74q0 -41 -31.5 -71.5t-88.5 -30.5h-390q-57 0 -87.5 30.5t-30.5 71.5z" />
<glyph unicode="&#x2013;" horiz-adv-x="831" d="M20 612q0 43 33 75t86 32h496q49 0 78.5 -32t29.5 -75q0 -41 -28.5 -71.5t-79.5 -30.5h-494q-57 0 -89 30.5t-32 71.5z" />
<glyph unicode="&#x2014;" horiz-adv-x="1097" d="M41 610q0 41 29.5 75t79.5 34h741q53 0 81.5 -31t28.5 -74t-28.5 -73.5t-81.5 -30.5h-741q-52 0 -80.5 29.5t-28.5 70.5z" />
<glyph unicode="&#x2018;" horiz-adv-x="296" d="M-23 1034q0 23 15 49l86 179q16 30 44 46.5t60 16.5q41 0 72 -34t31 -79q0 -23 -4 -34l-80 -185q-14 -33 -42 -48t-63 -15q-45 0 -82 29.5t-37 74.5z" />
<glyph unicode="&#x2019;" horiz-adv-x="274" d="M-23 1042q0 16 7 35l77 185q33 63 105 63q45 0 82 -29.5t37 -74.5q0 -23 -15 -50l2 3l-90 -181q-16 -30 -43.5 -46.5t-56.5 -16.5q-41 0 -73 33.5t-32 78.5z" />
<glyph unicode="&#x201a;" horiz-adv-x="301" d="M-45 -82q0 12 8 37l78 186q16 31 44 47.5t60 16.5q47 0 83 -29t36 -74q0 -23 -12 -51l-88 -180q-19 -31 -45.5 -47.5t-57.5 -16.5q-41 0 -73.5 34t-32.5 77z" />
<glyph unicode="&#x201c;" horiz-adv-x="509" d="M-18 1032q0 25 14 51l-2 -2l86 181q18 33 47 49t61 16q43 0 75 -31.5t30 -76.5l18 36q31 66 103 66q41 0 70.5 -32t29.5 -77q0 -16 -6 -34l-78 -185q-31 -63 -104 -63q-37 0 -71 22.5t-44 55.5l-6 -15q-31 -63 -105 -63q-45 0 -81.5 29.5t-36.5 72.5z" />
<glyph unicode="&#x201d;" horiz-adv-x="520" d="M-20 1034q0 23 4 35l79 186q14 31 43 47.5t62 16.5q39 0 72.5 -21.5t42.5 -54.5l6 12q14 31 42.5 47.5t61.5 16.5q45 0 82 -31t37 -74q0 -25 -14 -51l2 2l-90 -180q-16 -33 -44 -49t-61 -16q-43 0 -74.5 31.5t-29.5 76.5l-21 -37q-27 -63 -102 -63q-41 0 -69.5 30.5 t-28.5 75.5z" />
<glyph unicode="&#x201e;" horiz-adv-x="509" d="M-39 -80q0 16 6 35l78 186q33 63 105 64q45 0 81.5 -31t36.5 -74q0 -25 -14 -51l-86 -178q-18 -31 -45 -47.5t-57 -16.5q-41 0 -73 34t-32 79zM254 -78q0 23 4 33l80 186q14 31 43 47.5t61 16.5q45 0 82 -31t37 -76q0 -27 -14 -49v2l-88 -180q-17 -31 -44.5 -47.5 t-58.5 -16.5q-41 0 -71.5 34t-30.5 81z" />
<glyph unicode="&#x2022;" horiz-adv-x="479" d="M0 610q0 84 61.5 141.5t147.5 57.5q90 0 150.5 -57.5t60.5 -141.5q0 -82 -60.5 -139t-150.5 -57q-86 0 -147.5 58t-61.5 138z" />
<glyph unicode="&#x2026;" horiz-adv-x="751" d="M-31 121q0 53 38 86t97 33q82 0 115 -56q35 55 117 56q82 0 117 -56q33 55 114 56q60 0 97.5 -33t37.5 -86t-37.5 -87t-97.5 -34q-39 0 -68.5 15.5t-45.5 41.5q-16 -27 -47 -42t-70 -15t-69.5 15.5t-47.5 41.5q-16 -27 -46 -42t-69 -15q-59 0 -97 34t-38 87z" />
<glyph unicode="&#x202f;" horiz-adv-x="338" />
<glyph unicode="&#x2039;" horiz-adv-x="647" d="M6 539q0 23 13.5 43t37.5 45l316 307q18 18 33.5 24.5t48.5 6.5q47 0 81.5 -31t34.5 -74q0 -20 -8 -37.5t-28 -38.5l-256 -245l256 -246q37 -37 36 -74q0 -45 -31.5 -74.5t-84.5 -29.5q-49 0 -93 39l-311 301q-25 23 -35 41t-10 43z" />
<glyph unicode="&#x203a;" horiz-adv-x="618" d="M27 219q0 37 36 74l256 246l-256 245q-20 20 -28 38t-8 38q0 43 34.5 74t81.5 31q33 0 48.5 -6.5t33.5 -24.5l316 -307q27 -27 39 -46.5t12 -41.5q0 -25 -10.5 -43.5t-34.5 -40.5l-311 -301q-43 -39 -93 -39q-53 0 -84.5 29.5t-31.5 74.5z" />
<glyph unicode="&#x205f;" horiz-adv-x="423" />
<glyph unicode="&#x20ac;" horiz-adv-x="1228" />
<glyph unicode="&#x2122;" horiz-adv-x="1216" d="M-92 1204q0 41 26.5 71t75.5 30h389q57 0 90 -37q16 20 41 31.5t52 11.5q66 0 100 -54l129 -184l131 184q33 53 98 54q47 0 81 -31t34 -78v-428q0 -49 -31.5 -76.5t-79.5 -27.5q-47 0 -84.5 30.5t-37.5 73.5v78l-13 -18q-16 -29 -42.5 -45.5t-55.5 -16.5 q-27 0 -55.5 17.5t-42.5 44.5l-13 18v-78q0 -43 -37.5 -73.5t-84.5 -30.5t-79 27.5t-32 76.5v342q-29 -16 -68 -16h-77v-328q0 -47 -36 -74.5t-81 -27.5t-79 25.5t-38 72.5v332h-78q-47 0 -74.5 31.5t-27.5 72.5z" />
<glyph unicode="&#x25fc;" horiz-adv-x="1044" d="M0 0v1044h1044v-1044h-1044z" />
</font>
</defs>
</svg>
